<svg class="viewer-svg" data-viewer-version="22" xmlns="http://www.w3.org/2000/svg" viewBox="0 0 1040 620" role="img" aria-label="Circuito equivalente dalla netlist SPICE">
<defs><filter id="ledGlow" x="-100%" y="-100%" width="300%" height="300%"><feGaussianBlur stdDeviation="8"/></filter></defs>
<style>.viewer-svg{background:transparent;font-family:Arial,sans-serif}.wire,.symbol path,.symbol circle,.symbol rect,.connector rect,.connector circle{fill:none;stroke:#f4f7fb;stroke-width:3;stroke-linecap:round;stroke-linejoin:round}.wire.energized{fill:none;stroke:#22c55e;stroke-width:3;stroke-linecap:round;stroke-linejoin:round}.wire.active,.component-flow,.transistor-flow{fill:none;stroke:#dce51a;stroke-width:3;stroke-linecap:round;stroke-linejoin:round;stroke-dasharray:9 10;animation:viewerCurrent 1s linear infinite}.wire.transient,.component-flow.transient,.transistor-flow.transient{fill:none;stroke:#38bdf8;stroke-width:3;stroke-linecap:round;stroke-linejoin:round;stroke-dasharray:7 9;animation:viewerTransient 1.15s ease-in-out infinite alternate}.wire.idle{stroke:#aeb9c9;stroke-dasharray:10 8;opacity:.9}.wire.guide{stroke:#52647c;stroke-dasharray:3 11;opacity:.8}.scenario-link-idle{stroke:#aeb9c9!important;stroke-dasharray:10 8;opacity:.9}.scenario-link-component{cursor:help}.component-label{fill:#f4f7fb;font-size:13px;font-weight:700;text-anchor:middle;letter-spacing:0}.terminal-label{fill:#f4f7fb;font-size:12px;font-weight:700;letter-spacing:0}.pin-label{fill:#f4f7fb;font-size:12px;font-weight:700;text-anchor:end;letter-spacing:0}.battery-polarity{fill:#cbd5e1;font-size:19px;font-weight:700;text-anchor:middle;letter-spacing:0}.battery-polarity.positive{fill:#f8fafc}.battery-body{fill:#0b1728!important}.scenario-battery-body{fill:#082334!important;stroke:#38bdf8!important}.scenario-added-component,.scenario-modified-component{cursor:help;filter:drop-shadow(0 0 3px rgba(245,158,11,.62))}.scenario-added-component .symbol path,.scenario-added-component .symbol circle,.scenario-added-component .symbol rect,.scenario-modified-component .symbol path,.scenario-modified-component .symbol circle,.scenario-modified-component .symbol rect{stroke:#f59e0b}.scenario-badge{cursor:help}.scenario-badge circle{fill:#111827;stroke:#f59e0b;stroke-width:2}.scenario-badge text{fill:#fbbf24;font-size:12px;font-weight:700;text-anchor:middle;letter-spacing:0}.battery-glow{fill:#dce51a!important;opacity:.16;stroke:none!important;filter:url(#ledGlow);animation:viewerBatteryPulse 1.5s ease-in-out infinite}.scenario-source-glow{fill:#38bdf8!important;opacity:.15;stroke:none!important;filter:url(#ledGlow);animation:viewerScenarioPulse 1.5s ease-in-out infinite}.led-glow{fill:#ef4444;filter:url(#ledGlow);stroke:none}.led-glow.led-color-red{fill:#ef4444}.led-glow.led-color-yellow{fill:#facc15}.led-glow.led-color-green{fill:#22c55e}.led-glow.led-steady{opacity:.3}.led-color-red .led-rays{stroke:#ff4d5a!important}.led-color-yellow .led-rays{stroke:#fde047!important}.led-color-green .led-rays{stroke:#4ade80!important}.lamp-glow{fill:#ffd84a;opacity:.24;filter:url(#ledGlow);animation:viewerLampPulse 1.4s ease-in-out infinite}.meter-body{fill:#0b1728!important}.meter-glow{fill:#dce51a!important;opacity:.13;stroke:none!important;filter:url(#ledGlow);animation:viewerMeterPulse 1.5s ease-in-out infinite}.meter-scale,.meter-tick{stroke:#94a3b8!important;stroke-width:2!important}.meter-needle{stroke:#dce51a!important;stroke-width:2.5!important}.meter-pivot{fill:#dce51a!important;stroke:none!important}.meter-name{fill:#f4f7fb;font-size:13px;font-weight:700;text-anchor:middle;letter-spacing:0}.meter-reading{fill:#dce51a;font-size:12px;font-weight:700;text-anchor:middle;letter-spacing:0}.source-wave{stroke-width:2.5!important}.legend rect{fill:#06101d;stroke:#314257}.legend text{fill:#d7dfeb;font-size:11px;letter-spacing:0}.legend-title{font-weight:700}.legend .wire{stroke-width:3}.connector rect{fill:#0b1728}.connector circle{fill:#0b1728}@keyframes viewerCurrent{to{stroke-dashoffset:-38}}@keyframes viewerTransient{from{stroke-dashoffset:18;opacity:.68}to{stroke-dashoffset:-18;opacity:1}}@keyframes viewerLampPulse{0%,100%{opacity:.16}50%{opacity:.38}}@keyframes viewerBatteryPulse{0%,100%{opacity:.1}50%{opacity:.24}}@keyframes viewerScenarioPulse{0%,100%{opacity:.08}50%{opacity:.24}}@keyframes viewerMeterPulse{0%,100%{opacity:.08}50%{opacity:.2}}@media (prefers-reduced-motion:reduce){.wire.active,.wire.transient,.component-flow,.transistor-flow,.lamp-glow,.battery-glow,.scenario-source-glow,.meter-glow{animation:none}}</style>
<style>.terminal-port circle{fill:#071525!important}</style>
<style>.meter-needle-group{transform-origin:0px 9px;transform-box:fill-box}.meter-needle-group.meter-active{animation:viewerMeterNeedle .7s cubic-bezier(.22,.85,.32,1) both}.meter-live{fill:#dce51a;stroke:none;filter:url(#ledGlow);animation:viewerMeterLive 1.35s ease-in-out infinite}.meter-reading.meter-active{animation:viewerMeterReading 1.35s ease-in-out infinite}@keyframes viewerMeterNeedle{from{transform:rotate(-150deg)}to{transform:rotate(var(--needle-angle))}}@keyframes viewerMeterLive{0%,100%{opacity:.45}50%{opacity:1}}@keyframes viewerMeterReading{0%,100%{opacity:.78}50%{opacity:1}}@media (prefers-reduced-motion:reduce){.meter-needle-group.meter-active{animation:none;transform:rotate(var(--needle-angle))}.meter-live,.meter-reading.meter-active{animation:none}}</style>
<style>.wire.signal-overlay,.component-flow.signal-overlay,.transistor-flow.signal-overlay{fill:none;stroke:#38bdf8;stroke-width:1.5;stroke-linecap:round;stroke-linejoin:round;stroke-dasharray:3 8;animation:viewerSignalOverlay 1.15s linear infinite}@keyframes viewerSignalOverlay{to{stroke-dashoffset:-22}}@media (prefers-reduced-motion:reduce){.wire.signal-overlay,.component-flow.signal-overlay,.transistor-flow.signal-overlay{animation:none}}</style>
<style>.node-constraint{cursor:help}.constraint-leader{fill:none;stroke:#38bdf8;stroke-width:2;stroke-dasharray:4 6;opacity:.8}.constraint-halo{fill:#38bdf8;stroke:none;opacity:.16;filter:url(#ledGlow);animation:viewerConstraintPulse 1.5s ease-in-out infinite}.constraint-node{fill:#071525;stroke:#38bdf8;stroke-width:3}.constraint-badge{fill:#082334;stroke:#38bdf8;stroke-width:1.5}.constraint-label{fill:#dff6ff;font-size:12px;font-weight:700;text-anchor:middle;letter-spacing:0}@keyframes viewerConstraintPulse{0%,100%{opacity:.1}50%{opacity:.28}}@media (prefers-reduced-motion:reduce){.constraint-halo{animation:none}}</style>
<style>.node-wire{cursor:help}.node-badge{cursor:help}.node-badge rect{fill:#0b1728;fill-opacity:.9;stroke:#52647c;stroke-width:1}.node-badge text{fill:#d7dfeb;font-size:11px;font-weight:700;text-anchor:middle;letter-spacing:0}.node-badge:hover rect{stroke:#38bdf8;fill:#082334}.node-badge:hover text{fill:#dff6ff}</style>
<style>.headset .symbol ellipse{fill:none;stroke:#f4f7fb;stroke-width:3}.headset .audio-wave,.speaker .audio-wave,.antenna .radio-wave{fill:none;stroke:#f4f7fb;stroke-width:2;stroke-linecap:round;opacity:.5}.headset .audio-wave.active,.speaker .audio-wave.active{stroke:#38bdf8;animation:viewerAudioWave 1.25s ease-out infinite}.headset .audio-wave.wave-2.active,.speaker .audio-wave.wave-2.active{animation-delay:.18s}.antenna .radio-wave{animation:viewerRadioWave 1.8s ease-in-out infinite}.antenna .radio-wave.wave-2{animation-delay:.3s}@keyframes viewerAudioWave{0%{opacity:.2}55%{opacity:1}100%{opacity:.2}}@keyframes viewerRadioWave{0%,100%{opacity:.25}50%{opacity:.8}}@media (prefers-reduced-motion:reduce){.headset .audio-wave.active,.speaker .audio-wave.active,.antenna .radio-wave{animation:none}}</style>
<g class="connections"><g class="node-wire"><title>N002 | 9 V | 2 terminali</title><path class="wire energized" d="M747.44 331.51 V309.51 H727.4 V317.52 H739.4 V295.52"/></g><g class="node-wire"><title>Massa</title><path class="wire active" d="M747.44 423.51 V469.99 H518.69 V447.99"/></g><g class="node-wire"><title>Massa</title><path class="wire idle" d="M518.69 447.99 V469.99 H480.13 V388.44"/></g><g class="node-wire"><title>Massa</title><path class="wire active" d="M480.13 388.44 V410.44 H411.4 V370.15"/></g><g class="node-wire"><title>Massa</title><path class="wire active" d="M411.4 370.15 V392.15 H395.16 V508.62"/></g><g class="node-wire"><title>Massa</title><path class="wire active" d="M411.4 370.15 V450.18 H293.74 V428.18"/></g><g class="node-wire"><title>Massa</title><path class="wire idle" d="M293.74 428.18 V460.2 H204.74 V438.2"/></g><g class="node-wire"><title>Massa</title><path class="wire idle" d="M204.74 438.2 V470.75 H101.18 V448.75"/></g><g class="node-wire"><title>Massa</title><path class="wire idle" d="M480.13 388.44 V410.44 H474.5 V213.2 H496.5"/></g><g class="node-wire"><title>Massa</title><path class="wire idle" d="M496.5 213.2 H474.5 V266.2 H556.5 V244.2"/></g><g class="node-wire"><title>Massa</title><path class="wire idle" d="M556.5 244.2 V266.2 H667.4 V173.24"/></g><g class="node-wire"><title>N003 | 0 V | 2 terminali</title><path class="wire idle" d="M518.69 403.99 V381.99 H581.32 V338.13"/></g><g class="node-wire"><title>N001 | 0 V | 4 terminali</title><path class="wire idle" d="M150.4 310.97 H101.18 V356.75"/></g><g class="node-wire"><title>N001 | 0 V | 4 terminali</title><path class="wire idle" d="M150.4 310.97 H128.4 V352.2 H204.74 V374.2"/></g><g class="node-wire"><title>N001 | 0 V | 4 terminali</title><path class="wire idle" d="M150.4 310.97 H128.4 V196.92 H182.62 V174.92"/></g><g class="node-wire"><title>N004 | -0 V | 3 terminali</title><path class="wire idle" d="M232.4 310.97 H260.5"/></g><g class="node-wire"><title>N004 | -0 V | 3 terminali</title><path class="wire idle" d="M260.5 310.97 H238.5 V348.18 H293.74 V370.18"/></g><g class="node-wire"><title>N006 | 1.28 V | 4 terminali</title><path class="wire active" d="M410.46 314.83 V292.83 H389.49 V206.75 H411.49"/></g><g class="node-wire"><title>N006 | 1.28 V | 4 terminali</title><path class="wire active" d="M411.49 206.75 H389.49 V143.96"/></g><g class="node-wire"><title>N006 | 1.28 V | 4 terminali</title><path class="wire active" d="M389.49 143.96 V165.96 H341.74 V157.92 H335.65 V179.92"/></g><g class="node-wire"><title>N005 | 0.66 V | 3 terminali</title><path class="wire active" d="M354.73 338.78 H332.73 V332.75 H340.5 V310.97 H318.5"/></g><g class="node-wire"><title>N005 | 0.66 V | 3 terminali</title><path class="wire active" d="M318.5 310.97 H340.5 V293.92 H335.65 V271.92"/></g><g class="node-wire"><title>N010 | 0 V | 3 terminali</title><path class="wire idle" d="M496.5 177.2 V206.75 H469.49"/></g><g class="node-wire"><title>N010 | 0 V | 3 terminali</title><path class="wire idle" d="M469.49 206.75 H491.49 V207.2 Q497.49 213.2 491.49 219.2 V207.2 Q497.49 213.2 491.49 219.2 V260.2 Q497.49 266.2 491.49 272.2 V274.44 H480.13 V296.44"/></g><g class="node-wire"><title>N009 | 0 V | 2 terminali</title><path class="wire idle" d="M608.5 195.2 H630.5 V254.75 H581.32 V260.2 Q587.32 266.2 581.32 272.2 V280.13"/></g><g class="node-wire"><title>N007 | 9 V | 4 terminali</title><path class="wire energized" d="M556.5 146.2 V93.24 H667.4 V115.24"/></g><g class="node-wire"><title>N007 | 9 V | 4 terminali</title><path class="wire energized" d="M667.4 115.24 V93.24 H739.4 V211.52"/></g><g class="node-wire"><title>N007 | 9 V | 4 terminali</title><path class="wire active" d="M556.5 146.2 V29.96 H389.49 V51.96"/></g></g>
<g class="components"><g class="component" transform="translate(747.44 377.51) rotate(90)"><g class="symbol"><rect class="battery-glow" x="-38" y="-30" width="76" height="60" rx="8"/><path d="M-46.0 0 H-32 M32 0 H46.0"/><rect class="battery-body" x="-32" y="-24" width="64" height="48" rx="4"/><text class="battery-polarity positive" x="-16" y="5" transform="rotate(-90 -16 0)">+</text><text class="battery-polarity" x="16" y="5" transform="rotate(-90 16 0)">-</text></g><path class="component-flow" d="M-46.0 0 H-32"/></g><text class="component-label" style="text-anchor:start" x="781.44" y="381.51"><tspan x="781.44" y="381.51">9 V</tspan></text><g class="component-with-tooltip"><title>Z1 altoparlante; carico SPICE equivalente da 8 ohm</title><g class="component speaker"><g class="symbol"><path d="M518.69 403.99 H540.69 M518.69 447.99 H540.69 M540.69 403.99 H551.69 V447.99 H540.69 Z M551.69 403.99 L576.69 390.99 V460.99 L551.69 447.99"/><path class="audio-wave wave-1" d="M587.69 414.99 Q597.69 425.99 587.69 436.99"/><path class="audio-wave wave-2" d="M596.69 407.99 Q612.69 425.99 596.69 443.99"/></g></g><text class="component-label" style="text-anchor:start" x="622.69" y="429.99"><tspan x="622.69" y="429.99">Z1 8 ohm</tspan></text></g><g class="component-with-tooltip"><title>D1 AA119; simulato con modello rivelatore generico</title><g class="component" transform="translate(191.4 310.97) rotate(0)"><g class="symbol"><path d="M-40.999999999999986 0 H-18 M-18 -18 L18 0 L-18 18 Z M18 -20 V20 M18 0 H40.999999999999986"/></g></g><text class="component-label" style="text-anchor:middle" x="191.4" y="265.97"><tspan x="191.4" y="258.97">D1</tspan><tspan x="191.4" y="272.97">AA119</tspan></text></g><g class="component-with-tooltip"><title>L1: valore assunto 220 uH dalla label ambigua dell'immagine</title><g class="component" transform="translate(101.18 402.75) rotate(90)"><g class="symbol"><path d="M-46.0 0 H-30 C-30 -20 -10 -20 -10 0 C-10 -20 10 -20 10 0 C10 -20 30 -20 30 0 H46.0"/></g></g><text class="component-label" style="text-anchor:end" x="67.18" y="406.75"><tspan x="67.18" y="399.75">L1</tspan><tspan x="67.18" y="413.75">220 uH</tspan></text></g><g class="symbol transistor"><circle cx="389.49" cy="342.85" r="31"/><path d="M354.73 338.78 H383.49 M383.49 324.85 V360.85 M383.49 324.85 L410.46 314.83 M383.49 360.85 L411.4 370.15"/><path d="M391.57 368.81 L403.58 367.55 L394.73 359.33"/><path class="transistor-flow" d="M354.73 338.78 H383.49 M383.49 324.85 V360.85 M383.49 324.85 L410.46 314.83 M383.49 360.85 L411.4 370.15"/><text class="component-label" x="389.49" y="302.85">Q1</text></g><g class="component-with-tooltip"><title>IC1 LM386; equivalente SPICE lineare semplice</title><g class="component operational-amplifier"><g class="symbol"><path d="M511.06 156 L511.06 234.4 L598.42 195.2 Z M496.5 177.2 H511.06 M496.5 213.2 H511.06 M598.42 195.2 H608.5 M556.5 164 V146.2 M556.5 226.4 V244.2"/><text class="battery-polarity positive" x="521.06" y="183.2">+</text><text class="battery-polarity" x="521.06" y="217.2">-</text></g></g><text class="component-label" style="text-anchor:middle" x="556.5" y="197.2"><tspan x="556.5" y="197.2">LM386</tspan></text></g><g class="component" transform="translate(204.74 406.2) rotate(90)"><g class="symbol"><path d="M-32.0 0 H-8 M-8 -20 V20 M8 -20 V20 M8 0 H32.0 M-23 25 L23 -25 M14 -25 H23 V-16"/></g></g><text class="component-label" style="text-anchor:middle" x="242.74" y="460.2"><tspan x="242.74" y="453.2">C1</tspan><tspan x="242.74" y="467.2">365 pF</tspan></text><g class="component" transform="translate(293.74 399.18) rotate(90)"><g class="symbol"><path d="M-29.0 0 H-8 M-8 -20 V20 M8 -20 V20 M8 0 H29.0"/></g></g><text class="component-label" style="text-anchor:middle" x="331.74" y="450.18"><tspan x="331.74" y="443.18">C2</tspan><tspan x="331.74" y="457.18">100 nF</tspan></text><g class="component" transform="translate(289.5 310.97) rotate(0)"><g class="symbol"><path d="M-29.0 0 H-8 M-8 -20 V20 M8 -20 V20 M8 0 H29.0"/></g></g><text class="component-label" style="text-anchor:middle" x="251.5" y="264.97"><tspan x="251.5" y="257.97">C3</tspan><tspan x="251.5" y="271.97">100 nF</tspan></text><g class="component" transform="translate(440.49 206.75) rotate(0)"><g class="symbol"><path d="M-29.0 0 H-8 M-8 -20 V20 M8 -20 V20 M8 0 H29.0"/></g></g><text class="component-label" style="text-anchor:middle" x="440.49" y="160.75"><tspan x="440.49" y="153.75">C4</tspan><tspan x="440.49" y="167.75">100 nF</tspan></text><g class="component" transform="translate(581.32 309.13) rotate(90)"><g class="symbol"><path d="M-29.0 0 H-8 M8 -20 Q-4 0 8 20 M-8 -20 V20 M8 0 H29.0"/><text class="battery-polarity positive" x="-16" y="5" transform="rotate(-90 -16 0)">+</text><text class="battery-polarity" x="16" y="5" transform="rotate(-90 16 0)">-</text></g></g><text class="component-label" style="text-anchor:start" x="615.32" y="313.13"><tspan x="615.32" y="306.13">C5</tspan><tspan x="615.32" y="320.13">220 uF</tspan></text><g class="component" transform="translate(667.4 144.24) rotate(90)"><g class="symbol"><path d="M-29.0 0 H-8 M8 -20 Q-4 0 8 20 M-8 -20 V20 M8 0 H29.0"/><text class="battery-polarity positive" x="-16" y="5" transform="rotate(-90 -16 0)">+</text><text class="battery-polarity" x="16" y="5" transform="rotate(-90 16 0)">-</text></g></g><text class="component-label" style="text-anchor:start" x="701.4" y="128.24"><tspan x="701.4" y="121.24">C6</tspan><tspan x="701.4" y="135.24">100 uF</tspan></text><g class="component" transform="translate(335.65 225.92) rotate(90)"><g class="symbol"><path d="M-45.99999999999994 0 H-36 L-30 -14 L-18 14 L-6 -14 L6 14 L18 -14 L30 14 L36 0 H45.99999999999994"/></g><path class="component-flow" d="M-45.99999999999994 0 H-36 L-30 -14 L-18 14 L-6 -14 L6 14 L18 -14 L30 14 L36 0 H45.99999999999994"/></g><text class="component-label" style="text-anchor:end" x="301.65" y="229.92"><tspan x="301.65" y="222.92">R1</tspan><tspan x="301.65" y="236.92">100 kohm</tspan></text><g class="component" transform="translate(389.49 97.96) rotate(90)"><g class="symbol"><path d="M-45.99999999999996 0 H-36 L-30 -14 L-18 14 L-6 -14 L6 14 L18 -14 L30 14 L36 0 H45.99999999999996"/></g><path class="component-flow" d="M-45.99999999999996 0 H-36 L-30 -14 L-18 14 L-6 -14 L6 14 L18 -14 L30 14 L36 0 H45.99999999999996"/></g><text class="component-label" style="text-anchor:end" x="355.49" y="101.96"><tspan x="355.49" y="94.96">R2</tspan><tspan x="355.49" y="108.96">10 kohm</tspan></text><g class="component-with-tooltip"><title>R3 potenziometro 10 kohm; cursore base run al massimo volume</title><g class="component" transform="translate(480.13 342.44) rotate(90)"><g class="symbol"><path d="M-46.0 0 H-36 L-30 -14 L-18 14 L-6 -14 L6 14 L18 -14 L30 14 L36 0 H46.0"/></g></g><text class="component-label" style="text-anchor:middle" x="442.13" y="274.44"><tspan x="442.13" y="267.44">R3</tspan><tspan x="442.13" y="281.44">10 kohm</tspan></text></g><g class="component-with-tooltip"><title>S1 chiuso nella base run</title><g class="component" transform="translate(739.4 253.52) rotate(90)"><g class="symbol"><circle cx="-42.00000000000007" cy="0" r="4"/><circle cx="42.00000000000007" cy="0" r="4"/><path d="M-34.00000000000007 0 H34.00000000000007"/></g><path class="component-flow" d="M-34.00000000000007 0 H34.00000000000007"/></g><text class="component-label" style="text-anchor:start" x="773.4" y="257.52"><tspan x="773.4" y="257.52">S1</tspan></text></g><g class="component antenna"><g class="symbol"><path d="M182.62 174.92 V114.92 M182.62 114.92 L158.62 80.92 H206.62 Z"/><path class="radio-wave wave-1" d="M152.62 84.92 Q139.62 97.92 149.62 112.92"/><path class="radio-wave wave-2" d="M143.62 76.92 Q124.62 97.92 139.62 121.92"/><path class="radio-wave wave-1" d="M212.62 84.92 Q225.62 97.92 215.62 112.92"/><path class="radio-wave wave-2" d="M221.62 76.92 Q240.62 97.92 225.62 121.92"/></g></g><text class="component-label" style="text-anchor:middle" x="182.62" y="68.92"><tspan x="182.62" y="68.92">Antenna</tspan></text><g class="symbol ground" transform="translate(395.16 508.62)"><path d="M0 0 V12 M-22 12 H22 M-14 21 H14 M-6 30 H6"/></g></g>
<g class="node-badges"><g class="node-badge"><title>N001 | 0 V | 4 terminali</title><rect x="95.02" y="284.97" width="44.8" height="20" rx="4"/><text x="117.42" y="298.97">N001</text></g><g class="node-badge"><title>N002 | 9 V | 2 terminali</title><rect x="699" y="300.26" width="44.8" height="20" rx="4"/><text x="721.4" y="314.26">N002</text></g><g class="node-badge"><title>N003 | 0 V | 2 terminali</title><rect x="540.92" y="342.6" width="44.8" height="20" rx="4"/><text x="563.32" y="356.6">N003</text></g><g class="node-badge"><title>N004 | -0 V | 3 terminali</title><rect x="253.34" y="345.44" width="44.8" height="20" rx="4"/><text x="275.74" y="359.44">N004</text></g><g class="node-badge"><title>N005 | 0.66 V | 3 terminali</title><rect x="331.25" y="276.66" width="44.8" height="20" rx="4"/><text x="353.65" y="290.66">N005</text></g><g class="node-badge"><title>N006 | 1.28 V | 4 terminali</title><rect x="349.09" y="154.68" width="44.8" height="20" rx="4"/><text x="371.49" y="168.68">N006</text></g><g class="node-badge"><title>N007 | 9 V | 4 terminali</title><rect x="552.1" y="118.72" width="44.8" height="20" rx="4"/><text x="574.5" y="132.72">N007</text></g><g class="node-badge"><title>N009 | 0 V | 2 terminali</title><rect x="626.1" y="204.85" width="44.8" height="20" rx="4"/><text x="648.5" y="218.85">N009</text></g><g class="node-badge"><title>N010 | 0 V | 3 terminali</title><rect x="475.73" y="271.7" width="44.8" height="20" rx="4"/><text x="498.13" y="285.7">N010</text></g></g>
<g class="node-constraints"></g>
<g class="legend" transform="translate(835 24)"><rect width="180" height="188" rx="6"/><text class="legend-title" x="14" y="22">Stati</text><path class="wire energized" d="M14 42 H54"/><text x="68" y="46">tensione presente</text><path class="wire active" d="M14 68 H54"/><text x="68" y="72">corrente DC</text><path class="wire transient" d="M14 94 H54"/><text x="68" y="98">segnale variabile</text><path class="wire active" d="M14 120 H54"/><path class="wire signal-overlay" d="M14 120 H54"/><text x="68" y="124">DC + segnale</text><path class="wire idle" d="M14 146 H54"/><text x="68" y="150">nessuna corrente</text><circle class="constraint-node" cx="34" cy="170" r="5"/><text x="68" y="174">vincolo scenario</text></g>
</svg>