<svg class="viewer-svg" data-viewer-version="21" xmlns="http://www.w3.org/2000/svg" viewBox="0 0 1040 620" role="img" aria-label="Circuito equivalente dalla netlist SPICE">
<defs><filter id="ledGlow" x="-100%" y="-100%" width="300%" height="300%"><feGaussianBlur stdDeviation="8"/></filter></defs>
<style>.viewer-svg{background:transparent;font-family:Arial,sans-serif}.wire,.symbol path,.symbol circle,.symbol rect,.connector rect,.connector circle{fill:none;stroke:#f4f7fb;stroke-width:3;stroke-linecap:round;stroke-linejoin:round}.wire.energized{fill:none;stroke:#22c55e;stroke-width:3;stroke-linecap:round;stroke-linejoin:round}.wire.active,.component-flow,.transistor-flow{fill:none;stroke:#dce51a;stroke-width:3;stroke-linecap:round;stroke-linejoin:round;stroke-dasharray:9 10;animation:viewerCurrent 1s linear infinite}.wire.transient,.component-flow.transient,.transistor-flow.transient{fill:none;stroke:#38bdf8;stroke-width:3;stroke-linecap:round;stroke-linejoin:round;stroke-dasharray:7 9;animation:viewerTransient 1.15s ease-in-out infinite alternate}.wire.idle{stroke:#aeb9c9;stroke-dasharray:10 8;opacity:.9}.wire.guide{stroke:#52647c;stroke-dasharray:3 11;opacity:.8}.scenario-link-idle{stroke:#aeb9c9!important;stroke-dasharray:10 8;opacity:.9}.scenario-link-component{cursor:help}.component-label{fill:#f4f7fb;font-size:13px;font-weight:700;text-anchor:middle;letter-spacing:0}.terminal-label{fill:#f4f7fb;font-size:12px;font-weight:700;letter-spacing:0}.pin-label{fill:#f4f7fb;font-size:12px;font-weight:700;text-anchor:end;letter-spacing:0}.battery-polarity{fill:#cbd5e1;font-size:19px;font-weight:700;text-anchor:middle;letter-spacing:0}.battery-polarity.positive{fill:#f8fafc}.battery-body{fill:#0b1728!important}.scenario-battery-body{fill:#082334!important;stroke:#38bdf8!important}.scenario-added-component,.scenario-modified-component{cursor:help;filter:drop-shadow(0 0 3px rgba(245,158,11,.62))}.scenario-added-component .symbol path,.scenario-added-component .symbol circle,.scenario-added-component .symbol rect,.scenario-modified-component .symbol path,.scenario-modified-component .symbol circle,.scenario-modified-component .symbol rect{stroke:#f59e0b}.scenario-badge{cursor:help}.scenario-badge circle{fill:#111827;stroke:#f59e0b;stroke-width:2}.scenario-badge text{fill:#fbbf24;font-size:12px;font-weight:700;text-anchor:middle;letter-spacing:0}.battery-glow{fill:#dce51a!important;opacity:.16;stroke:none!important;filter:url(#ledGlow);animation:viewerBatteryPulse 1.5s ease-in-out infinite}.scenario-source-glow{fill:#38bdf8!important;opacity:.15;stroke:none!important;filter:url(#ledGlow);animation:viewerScenarioPulse 1.5s ease-in-out infinite}.led-glow{fill:#ef4444;filter:url(#ledGlow);stroke:none}.led-glow.led-color-red{fill:#ef4444}.led-glow.led-color-yellow{fill:#facc15}.led-glow.led-color-green{fill:#22c55e}.led-glow.led-steady{opacity:.3}.led-color-red .led-rays{stroke:#ff4d5a!important}.led-color-yellow .led-rays{stroke:#fde047!important}.led-color-green .led-rays{stroke:#4ade80!important}.lamp-glow{fill:#ffd84a;opacity:.24;filter:url(#ledGlow);animation:viewerLampPulse 1.4s ease-in-out infinite}.meter-body{fill:#0b1728!important}.meter-glow{fill:#dce51a!important;opacity:.13;stroke:none!important;filter:url(#ledGlow);animation:viewerMeterPulse 1.5s ease-in-out infinite}.meter-scale,.meter-tick{stroke:#94a3b8!important;stroke-width:2!important}.meter-needle{stroke:#dce51a!important;stroke-width:2.5!important}.meter-pivot{fill:#dce51a!important;stroke:none!important}.meter-name{fill:#f4f7fb;font-size:13px;font-weight:700;text-anchor:middle;letter-spacing:0}.meter-reading{fill:#dce51a;font-size:12px;font-weight:700;text-anchor:middle;letter-spacing:0}.source-wave{stroke-width:2.5!important}.legend rect{fill:#06101d;stroke:#314257}.legend text{fill:#d7dfeb;font-size:11px;letter-spacing:0}.legend-title{font-weight:700}.legend .wire{stroke-width:3}.connector rect{fill:#0b1728}.connector circle{fill:#0b1728}@keyframes viewerCurrent{to{stroke-dashoffset:-38}}@keyframes viewerTransient{from{stroke-dashoffset:18;opacity:.68}to{stroke-dashoffset:-18;opacity:1}}@keyframes viewerLampPulse{0%,100%{opacity:.16}50%{opacity:.38}}@keyframes viewerBatteryPulse{0%,100%{opacity:.1}50%{opacity:.24}}@keyframes viewerScenarioPulse{0%,100%{opacity:.08}50%{opacity:.24}}@keyframes viewerMeterPulse{0%,100%{opacity:.08}50%{opacity:.2}}@media (prefers-reduced-motion:reduce){.wire.active,.wire.transient,.component-flow,.transistor-flow,.lamp-glow,.battery-glow,.scenario-source-glow,.meter-glow{animation:none}}</style>
<style>.terminal-port circle{fill:#071525!important}</style>
<style>.meter-needle-group{transform-origin:0px 9px;transform-box:fill-box}.meter-needle-group.meter-active{animation:viewerMeterNeedle .7s cubic-bezier(.22,.85,.32,1) both}.meter-live{fill:#dce51a;stroke:none;filter:url(#ledGlow);animation:viewerMeterLive 1.35s ease-in-out infinite}.meter-reading.meter-active{animation:viewerMeterReading 1.35s ease-in-out infinite}@keyframes viewerMeterNeedle{from{transform:rotate(-150deg)}to{transform:rotate(var(--needle-angle))}}@keyframes viewerMeterLive{0%,100%{opacity:.45}50%{opacity:1}}@keyframes viewerMeterReading{0%,100%{opacity:.78}50%{opacity:1}}@media (prefers-reduced-motion:reduce){.meter-needle-group.meter-active{animation:none;transform:rotate(var(--needle-angle))}.meter-live,.meter-reading.meter-active{animation:none}}</style>
<style>.wire.mixed-signal,.component-flow.mixed-signal,.transistor-flow.mixed-signal{fill:none;stroke:#7c83c8;stroke-width:3;stroke-linecap:round;stroke-linejoin:round;stroke-dasharray:7 9;animation:viewerMixed 1.25s linear infinite}@keyframes viewerMixed{to{stroke-dashoffset:-32}}@media (prefers-reduced-motion:reduce){.wire.mixed-signal,.component-flow.mixed-signal,.transistor-flow.mixed-signal{animation:none}}</style>
<style>.node-constraint{cursor:help}.constraint-leader{fill:none;stroke:#38bdf8;stroke-width:2;stroke-dasharray:4 6;opacity:.8}.constraint-halo{fill:#38bdf8;stroke:none;opacity:.16;filter:url(#ledGlow);animation:viewerConstraintPulse 1.5s ease-in-out infinite}.constraint-node{fill:#071525;stroke:#38bdf8;stroke-width:3}.constraint-badge{fill:#082334;stroke:#38bdf8;stroke-width:1.5}.constraint-label{fill:#dff6ff;font-size:12px;font-weight:700;text-anchor:middle;letter-spacing:0}@keyframes viewerConstraintPulse{0%,100%{opacity:.1}50%{opacity:.28}}@media (prefers-reduced-motion:reduce){.constraint-halo{animation:none}}</style>
<style>.node-wire{cursor:help}.node-badge{cursor:help}.node-badge rect{fill:#0b1728;fill-opacity:.9;stroke:#52647c;stroke-width:1}.node-badge text{fill:#d7dfeb;font-size:11px;font-weight:700;text-anchor:middle;letter-spacing:0}.node-badge:hover rect{stroke:#38bdf8;fill:#082334}.node-badge:hover text{fill:#dff6ff}</style>
<style>.headset .symbol ellipse{fill:none;stroke:#f4f7fb;stroke-width:3}.headset .audio-wave,.speaker .audio-wave,.antenna .radio-wave{fill:none;stroke:#f4f7fb;stroke-width:2;stroke-linecap:round;opacity:.5}.headset .audio-wave.active,.speaker .audio-wave.active{stroke:#38bdf8;animation:viewerAudioWave 1.25s ease-out infinite}.headset .audio-wave.wave-2.active,.speaker .audio-wave.wave-2.active{animation-delay:.18s}.antenna .radio-wave{animation:viewerRadioWave 1.8s ease-in-out infinite}.antenna .radio-wave.wave-2{animation-delay:.3s}@keyframes viewerAudioWave{0%{opacity:.2}55%{opacity:1}100%{opacity:.2}}@keyframes viewerRadioWave{0%,100%{opacity:.25}50%{opacity:.8}}@media (prefers-reduced-motion:reduce){.headset .audio-wave.active,.speaker .audio-wave.active,.antenna .radio-wave{animation:none}}</style>
<g class="connections"><g class="node-wire"><title>N001 | 1 V | 8 terminali</title><path class="wire energized" d="M198.52 329.39 V245.5 H165.21"/></g><g class="node-wire"><title>N001 | 1 V | 8 terminali</title><path class="wire energized" d="M165.21 245.5 H238.73 V246.52"/></g><g class="node-wire"><title>N001 | 1 V | 8 terminali</title><path class="wire active" d="M238.73 246.52 H216.73 V168.78 H355.59"/></g><g class="node-wire"><title>N001 | 1 V | 8 terminali</title><path class="wire active" d="M355.59 168.78 H333.59 V84.84 H371.76"/></g><g class="node-wire"><title>N001 | 1 V | 8 terminali</title><path class="wire energized" d="M238.73 246.52 H143.52 V405.39 H216.73 V427.39"/></g><g class="node-wire"><title>N001 | 1 V | 8 terminali</title><path class="wire energized" d="M216.73 427.39 V392.04 H305.71"/></g><g class="node-wire"><title>N001 | 1 V | 8 terminali</title><path class="wire energized" d="M305.71 392.04 H283.71 V327.27 H438.7"/></g><g class="node-wire"><title>Massa</title><path class="wire idle" d="M198.52 391.39 V399.39 Q204.52 405.39 198.52 411.39 V507.39 H216.73 V485.39"/></g><g class="node-wire"><title>Massa</title><path class="wire idle" d="M216.73 485.39 V514.54 H397.92 V492.54"/></g><g class="node-wire"><title>Massa</title><path class="wire guide" d="M397.92 492.54 V514.54 H444.1 V536.7"/></g><g class="node-wire"><title>Massa</title><path class="wire idle" d="M444.1 536.7 V514.7 H570.6 V485.53"/></g><g class="node-wire"><title>Massa</title><path class="wire active" d="M570.6 485.53 V507.53 H614.12 V391.54"/></g><g class="node-wire"><title>N002 | 0 V | 8 terminali</title><path class="wire active" d="M433.76 84.84 H469.59 V168.78 H447.59"/></g><g class="node-wire"><title>N002 | 0 V | 8 terminali</title><path class="wire active" d="M447.59 168.78 H570.6 V236.33 H548.6"/></g><g class="node-wire"><title>N002 | 0 V | 8 terminali</title><path class="wire idle" d="M548.6 236.33 H625.17 V245.33 H647.17"/></g><g class="node-wire"><title>N002 | 0 V | 8 terminali</title><path class="wire active" d="M647.17 245.33 H614.12 V329.54"/></g><g class="node-wire"><title>N002 | 0 V | 8 terminali</title><path class="wire active" d="M447.59 168.78 H469.59 V305.39 H518.7 V327.27 H496.7"/></g><g class="node-wire"><title>N002 | 0 V | 8 terminali</title><path class="wire idle" d="M496.7 327.27 H528.53 V411.16 H506.53"/></g><g class="node-wire"><title>N002 | 0 V | 8 terminali</title><path class="wire idle" d="M506.53 411.16 H528.53 V405.53 H570.6 V427.53"/></g><g class="node-wire"><title>N003 | 0 V | 3 terminali</title><path class="wire idle" d="M363.71 392.04 H398.03 V416.9"/></g><g class="node-wire"><title>N003 | 0 V | 3 terminali</title><path class="wire idle" d="M398.03 416.9 V394.9 H426.53 V411.16 H448.53"/></g><g class="node-wire"><title>N004 | 1 V | 2 terminali</title><path class="wire energized" d="M330.73 246.52 H366.65 V243.74"/></g><g class="node-wire"><title>N005 | 0 V | 2 terminali</title><path class="wire idle" d="M486.6 236.33 H475.59 Q469.59 230.33 463.59 236.33 H450.65 V243.74"/></g></g>
<g class="components"><g class="component" transform="translate(198.52 360.39) rotate(90)"><g class="symbol"><path d="M-31.0 0 H-25 M25 0 H31.0"/><circle cx="0" cy="0" r="25"/><path d="M-13 0 H13 M5 -8 L13 0 L5 8"/></g></g><text class="component-label" style="text-anchor:start" x="232.52" y="364.39"><tspan x="232.52" y="357.39">I_A</tspan><tspan x="232.52" y="371.39">0 A</tspan></text><g class="component" transform="translate(402.76 84.84) rotate(0)"><g class="symbol"><path d="M-31.0 0 H-25 M25 0 H31.0"/><circle cx="0" cy="0" r="25"/><path d="M-13 0 H13 M5 -8 L13 0 L5 8"/></g><path class="component-flow" d="M-31.0 0 H-25 M25 0 H31.0"/></g><text class="component-label" style="text-anchor:middle" x="402.76" y="31.84"><tspan x="402.76" y="24.84">I_OFF</tspan><tspan x="402.76" y="38.84">1 pA</tspan></text><g class="component" transform="translate(614.12 360.54) rotate(90)"><g class="symbol"><path d="M-31.0 0 H-25 M25 0 H31.0"/><circle cx="0" cy="0" r="25"/><path d="M-13 0 H13 M5 -8 L13 0 L5 8"/></g><path class="component-flow" d="M-31.0 0 H-25 M25 0 H31.0"/></g><text class="component-label" style="text-anchor:start" x="648.12" y="364.54"><tspan x="648.12" y="357.54">I_B</tspan><tspan x="648.12" y="371.54">1 nA</tspan></text><g class="component" transform="translate(216.73 456.39) rotate(90)"><g class="symbol"><path d="M-29.0 0 H-8 M8 -20 Q-4 0 8 20 M-8 -20 V20 M8 0 H29.0"/><text class="battery-polarity positive" x="-16" y="5" transform="rotate(-90 -16 0)">+</text><text class="battery-polarity" x="16" y="5" transform="rotate(-90 16 0)">-</text></g></g><text class="component-label" style="text-anchor:end" x="182.73" y="460.39"><tspan x="182.73" y="453.39">capacita</tspan><tspan x="182.73" y="467.39">parassita assunta: 5 pF</tspan></text><g class="component" transform="translate(334.71 392.04) rotate(0)"><g class="symbol"><path d="M-29.0 0 H-8 M8 -20 Q-4 0 8 20 M-8 -20 V20 M8 0 H29.0"/><text class="battery-polarity positive" x="-16" y="5" transform="rotate(-0 -16 0)">+</text><text class="battery-polarity" x="16" y="5" transform="rotate(-0 16 0)">-</text></g></g><text class="component-label" style="text-anchor:middle" x="334.71" y="346.04"><tspan x="334.71" y="339.04">capacita</tspan><tspan x="334.71" y="353.04">parassita assunta: 5 pF</tspan></text><g class="component" transform="translate(467.7 327.27) rotate(0)"><g class="symbol"><path d="M-29.0 0 H-8 M8 -20 Q-4 0 8 20 M-8 -20 V20 M8 0 H29.0"/><text class="battery-polarity positive" x="-16" y="5" transform="rotate(-0 -16 0)">+</text><text class="battery-polarity" x="16" y="5" transform="rotate(-0 16 0)">-</text></g></g><text class="component-label" style="text-anchor:middle" x="467.7" y="373.27"><tspan x="467.7" y="366.27">capacita</tspan><tspan x="467.7" y="380.27">parassita assunta: 5 pF</tspan></text><g class="component" transform="translate(477.53 411.16) rotate(0)"><g class="symbol"><path d="M-29.0 0 H-8 M8 -20 Q-4 0 8 20 M-8 -20 V20 M8 0 H29.0"/><text class="battery-polarity positive" x="-16" y="5" transform="rotate(-0 -16 0)">+</text><text class="battery-polarity" x="16" y="5" transform="rotate(-0 16 0)">-</text></g></g><text class="component-label" style="text-anchor:middle" x="439.53" y="457.16"><tspan x="439.53" y="450.16">capacita</tspan><tspan x="439.53" y="464.16">parassita assunta: 5 pF</tspan></text><g class="component" transform="translate(570.6 456.53) rotate(90)"><g class="symbol"><path d="M-29.0 0 H-8 M8 -20 Q-4 0 8 20 M-8 -20 V20 M8 0 H29.0"/><text class="battery-polarity positive" x="-16" y="5" transform="rotate(-90 -16 0)">+</text><text class="battery-polarity" x="16" y="5" transform="rotate(-90 16 0)">-</text></g></g><text class="component-label" style="text-anchor:start" x="604.6" y="460.53"><tspan x="604.6" y="453.53">capacita</tspan><tspan x="604.6" y="467.53">parassita assunta: 5 pF</tspan></text><g class="component" transform="translate(284.73 246.52) rotate(0)"><g class="symbol"><path d="M-45.999999999999915 0 H-36 L-30 -14 L-18 14 L-6 -14 L6 14 L18 -14 L30 14 L36 0 H45.999999999999915"/></g></g><text class="component-label" style="text-anchor:middle" x="246.73" y="207.52"><tspan x="246.73" y="200.52">r_ON</tspan><tspan x="246.73" y="214.52">10 ohm</tspan></text><g class="component" transform="translate(401.59 168.78) rotate(0)"><g class="symbol"><path d="M-46.0 0 H-36 L-30 -14 L-18 14 L-6 -14 L6 14 L18 -14 L30 14 L36 0 H46.0"/></g><path class="component-flow" d="M-46.0 0 H-36 L-30 -14 L-18 14 L-6 -14 L6 14 L18 -14 L30 14 L36 0 H46.0"/></g><text class="component-label" style="text-anchor:middle" x="325.59" y="129.78"><tspan x="325.59" y="122.78">r_OFF</tspan><tspan x="325.59" y="136.78">1 Gohm</tspan></text><g class="component" transform="translate(517.6 236.33) rotate(0)"><g class="symbol"><path d="M-30.999999999999915 0 H-25 M25 0 H30.999999999999915"/><circle cx="0" cy="0" r="25"/><text class="battery-polarity positive" x="-16" y="5" transform="rotate(-0 -16 0)">+</text><text class="battery-polarity" x="16" y="5" transform="rotate(-0 16 0)">-</text></g></g><text class="component-label" style="text-anchor:middle" x="517.6" y="183.33"><tspan x="517.6" y="176.33">V_OS</tspan><tspan x="517.6" y="190.33">1 mV</tspan></text><g class="symbol ground" transform="translate(444.1 536.7)"><path d="M0 0 V12 M-22 12 H22 M-14 21 H14 M-6 30 H6"/></g><g class="component" transform="translate(408.65 243.74) rotate(0)"><g class="symbol"><circle cx="-42.0" cy="0" r="4"/><circle cx="42.0" cy="0" r="4"/><path d="M-34.0 0 L34.0 -20"/></g></g><text class="component-label" style="text-anchor:middle" x="408.65" y="206.74"><tspan x="408.65" y="206.74">SW</tspan></text><g class="symbol terminal-port"><circle cx="165.21" cy="245.5" r="5"/><text class="terminal-label" text-anchor="end" x="151.21" y="241.5"><tspan x="151.21">VTEST_A</tspan><tspan x="151.21" dy="15">1 V</tspan></text></g><g class="symbol terminal-port"><circle cx="397.92" cy="492.54" r="5"/><text class="terminal-label" text-anchor="middle" x="397.92" y="458.54"><tspan x="397.92">0</tspan></text></g><g class="symbol terminal-port"><circle cx="398.03" cy="416.9" r="5"/><text class="terminal-label" text-anchor="middle" x="398.03" y="436.9"><tspan x="398.03">VTEST_C</tspan><tspan x="398.03" dy="15">0 V</tspan></text></g><g class="symbol terminal-port"><circle cx="647.17" cy="245.33" r="5"/><text class="terminal-label" text-anchor="start" x="661.17" y="249.33"><tspan x="661.17">N002</tspan></text></g></g>
<g class="node-badges"><g class="node-badge"><title>N001 | 1 V | 8 terminali</title><rect x="194.12" y="291.71" width="44.8" height="20" rx="4"/><text x="216.52" y="305.71">N001</text></g><g class="node-badge"><title>N002 | 0 V | 8 terminali</title><rect x="465.19" y="102.54" width="44.8" height="20" rx="4"/><text x="487.59" y="116.54">N002</text></g><g class="node-badge"><title>N003 | 0 V | 3 terminali</title><rect x="393.63" y="392.16" width="44.8" height="20" rx="4"/><text x="416.03" y="406.16">N003</text></g><g class="node-badge"><title>N004 | 1 V | 2 terminali</title><rect x="320.18" y="252.52" width="44.8" height="20" rx="4"/><text x="342.58" y="266.52">N004</text></g><g class="node-badge"><title>N005 | 0 V | 2 terminali</title><rect x="440.11" y="210.33" width="44.8" height="20" rx="4"/><text x="462.51" y="224.33">N005</text></g></g>
<g class="node-constraints"></g>
<g class="legend" transform="translate(835 24)"><rect width="180" height="188" rx="6"/><text class="legend-title" x="14" y="22">Stati</text><path class="wire energized" d="M14 42 H54"/><text x="68" y="46">tensione presente</text><path class="wire active" d="M14 68 H54"/><text x="68" y="72">corrente DC</text><path class="wire transient" d="M14 94 H54"/><text x="68" y="98">segnale variabile</text><path class="wire mixed-signal" d="M14 120 H54"/><text x="68" y="124">DC + segnale</text><path class="wire idle" d="M14 146 H54"/><text x="68" y="150">nessuna corrente</text><circle class="constraint-node" cx="34" cy="170" r="5"/><text x="68" y="174">vincolo scenario</text></g>
</svg>