<svg class="viewer-svg" data-viewer-version="21" xmlns="http://www.w3.org/2000/svg" viewBox="0 0 1040 620" role="img" aria-label="Circuito equivalente dalla netlist SPICE">
<defs><filter id="ledGlow" x="-100%" y="-100%" width="300%" height="300%"><feGaussianBlur stdDeviation="8"/></filter></defs>
<style>.viewer-svg{background:transparent;font-family:Arial,sans-serif}.wire,.symbol path,.symbol circle,.symbol rect,.connector rect,.connector circle{fill:none;stroke:#f4f7fb;stroke-width:3;stroke-linecap:round;stroke-linejoin:round}.wire.energized{fill:none;stroke:#22c55e;stroke-width:3;stroke-linecap:round;stroke-linejoin:round}.wire.active,.component-flow,.transistor-flow{fill:none;stroke:#dce51a;stroke-width:3;stroke-linecap:round;stroke-linejoin:round;stroke-dasharray:9 10;animation:viewerCurrent 1s linear infinite}.wire.transient,.component-flow.transient,.transistor-flow.transient{fill:none;stroke:#38bdf8;stroke-width:3;stroke-linecap:round;stroke-linejoin:round;stroke-dasharray:7 9;animation:viewerTransient 1.15s ease-in-out infinite alternate}.wire.idle{stroke:#aeb9c9;stroke-dasharray:10 8;opacity:.9}.wire.guide{stroke:#52647c;stroke-dasharray:3 11;opacity:.8}.scenario-link-idle{stroke:#aeb9c9!important;stroke-dasharray:10 8;opacity:.9}.scenario-link-component{cursor:help}.component-label{fill:#f4f7fb;font-size:13px;font-weight:700;text-anchor:middle;letter-spacing:0}.terminal-label{fill:#f4f7fb;font-size:12px;font-weight:700;letter-spacing:0}.pin-label{fill:#f4f7fb;font-size:12px;font-weight:700;text-anchor:end;letter-spacing:0}.battery-polarity{fill:#cbd5e1;font-size:19px;font-weight:700;text-anchor:middle;letter-spacing:0}.battery-polarity.positive{fill:#f8fafc}.battery-body{fill:#0b1728!important}.scenario-battery-body{fill:#082334!important;stroke:#38bdf8!important}.scenario-added-component,.scenario-modified-component{cursor:help;filter:drop-shadow(0 0 3px rgba(245,158,11,.62))}.scenario-added-component .symbol path,.scenario-added-component .symbol circle,.scenario-added-component .symbol rect,.scenario-modified-component .symbol path,.scenario-modified-component .symbol circle,.scenario-modified-component .symbol rect{stroke:#f59e0b}.scenario-badge{cursor:help}.scenario-badge circle{fill:#111827;stroke:#f59e0b;stroke-width:2}.scenario-badge text{fill:#fbbf24;font-size:12px;font-weight:700;text-anchor:middle;letter-spacing:0}.battery-glow{fill:#dce51a!important;opacity:.16;stroke:none!important;filter:url(#ledGlow);animation:viewerBatteryPulse 1.5s ease-in-out infinite}.scenario-source-glow{fill:#38bdf8!important;opacity:.15;stroke:none!important;filter:url(#ledGlow);animation:viewerScenarioPulse 1.5s ease-in-out infinite}.led-glow{fill:#ef4444;filter:url(#ledGlow);stroke:none}.led-glow.led-steady{opacity:.3}.lamp-glow{fill:#ffd84a;opacity:.24;filter:url(#ledGlow);animation:viewerLampPulse 1.4s ease-in-out infinite}.meter-body{fill:#0b1728!important}.meter-glow{fill:#dce51a!important;opacity:.13;stroke:none!important;filter:url(#ledGlow);animation:viewerMeterPulse 1.5s ease-in-out infinite}.meter-scale,.meter-tick{stroke:#94a3b8!important;stroke-width:2!important}.meter-needle{stroke:#dce51a!important;stroke-width:2.5!important}.meter-pivot{fill:#dce51a!important;stroke:none!important}.meter-name{fill:#f4f7fb;font-size:13px;font-weight:700;text-anchor:middle;letter-spacing:0}.meter-reading{fill:#dce51a;font-size:12px;font-weight:700;text-anchor:middle;letter-spacing:0}.led-rays{stroke:#ff4d5a!important}.source-wave{stroke-width:2.5!important}.legend rect{fill:#06101d;stroke:#314257}.legend text{fill:#d7dfeb;font-size:11px;letter-spacing:0}.legend-title{font-weight:700}.legend .wire{stroke-width:3}.connector rect{fill:#0b1728}.connector circle{fill:#0b1728}@keyframes viewerCurrent{to{stroke-dashoffset:-38}}@keyframes viewerTransient{from{stroke-dashoffset:18;opacity:.68}to{stroke-dashoffset:-18;opacity:1}}@keyframes viewerLampPulse{0%,100%{opacity:.16}50%{opacity:.38}}@keyframes viewerBatteryPulse{0%,100%{opacity:.1}50%{opacity:.24}}@keyframes viewerScenarioPulse{0%,100%{opacity:.08}50%{opacity:.24}}@keyframes viewerMeterPulse{0%,100%{opacity:.08}50%{opacity:.2}}@media (prefers-reduced-motion:reduce){.wire.active,.wire.transient,.component-flow,.transistor-flow,.lamp-glow,.battery-glow,.scenario-source-glow,.meter-glow{animation:none}}</style>
<style>.wire.leakage,.component-flow.leakage{fill:none;stroke:#f59e0b;stroke-width:3;stroke-linecap:round;stroke-linejoin:round;stroke-dasharray:4 10;animation:viewerLeakage 1.9s linear infinite}@keyframes viewerLeakage{to{stroke-dashoffset:-28}}@media (prefers-reduced-motion:reduce){.wire.leakage,.component-flow.leakage{animation:none}}</style>
<style>.terminal-port circle{fill:#071525!important}</style>
<style>.meter-needle-group{transform-origin:0px 9px;transform-box:fill-box}.meter-needle-group.meter-active{animation:viewerMeterNeedle .7s cubic-bezier(.22,.85,.32,1) both}.meter-live{fill:#dce51a;stroke:none;filter:url(#ledGlow);animation:viewerMeterLive 1.35s ease-in-out infinite}.meter-reading.meter-active{animation:viewerMeterReading 1.35s ease-in-out infinite}@keyframes viewerMeterNeedle{from{transform:rotate(-150deg)}to{transform:rotate(var(--needle-angle))}}@keyframes viewerMeterLive{0%,100%{opacity:.45}50%{opacity:1}}@keyframes viewerMeterReading{0%,100%{opacity:.78}50%{opacity:1}}@media (prefers-reduced-motion:reduce){.meter-needle-group.meter-active{animation:none;transform:rotate(var(--needle-angle))}.meter-live,.meter-reading.meter-active{animation:none}}</style>
<style>.wire.mixed-signal,.component-flow.mixed-signal,.transistor-flow.mixed-signal{fill:none;stroke:#7c83c8;stroke-width:3;stroke-linecap:round;stroke-linejoin:round;stroke-dasharray:7 9;animation:viewerMixed 1.25s linear infinite}@keyframes viewerMixed{to{stroke-dashoffset:-32}}@media (prefers-reduced-motion:reduce){.wire.mixed-signal,.component-flow.mixed-signal,.transistor-flow.mixed-signal{animation:none}}</style>
<style>.node-constraint{cursor:help}.constraint-leader{fill:none;stroke:#38bdf8;stroke-width:2;stroke-dasharray:4 6;opacity:.8}.constraint-halo{fill:#38bdf8;stroke:none;opacity:.16;filter:url(#ledGlow);animation:viewerConstraintPulse 1.5s ease-in-out infinite}.constraint-node{fill:#071525;stroke:#38bdf8;stroke-width:3}.constraint-badge{fill:#082334;stroke:#38bdf8;stroke-width:1.5}.constraint-label{fill:#dff6ff;font-size:12px;font-weight:700;text-anchor:middle;letter-spacing:0}@keyframes viewerConstraintPulse{0%,100%{opacity:.1}50%{opacity:.28}}@media (prefers-reduced-motion:reduce){.constraint-halo{animation:none}}</style>
<style>.node-wire{cursor:help}.node-badge{cursor:help}.node-badge rect{fill:#0b1728;fill-opacity:.9;stroke:#52647c;stroke-width:1}.node-badge text{fill:#d7dfeb;font-size:11px;font-weight:700;text-anchor:middle;letter-spacing:0}.node-badge:hover rect{stroke:#38bdf8;fill:#082334}.node-badge:hover text{fill:#dff6ff}</style>
<style>.headset .symbol ellipse{fill:none;stroke:#f4f7fb;stroke-width:3}.headset .audio-wave,.antenna .radio-wave{fill:none;stroke:#f4f7fb;stroke-width:2;stroke-linecap:round;opacity:.5}.headset .audio-wave.active{stroke:#38bdf8;animation:viewerAudioWave 1.25s ease-out infinite}.headset .audio-wave.wave-2.active{animation-delay:.18s}.antenna .radio-wave{animation:viewerRadioWave 1.8s ease-in-out infinite}.antenna .radio-wave.wave-2{animation-delay:.3s}@keyframes viewerAudioWave{0%{opacity:.2}55%{opacity:1}100%{opacity:.2}}@keyframes viewerRadioWave{0%,100%{opacity:.25}50%{opacity:.8}}@media (prefers-reduced-motion:reduce){.headset .audio-wave.active,.antenna .radio-wave{animation:none}}</style>
<g class="connections"><g class="node-wire"><title>Massa</title><path class="wire active" d="M422.44 523.51 H400.44 V488.21 H187.45 V510.21"/></g><g class="node-wire"><title>Massa</title><path class="wire mixed-signal" d="M187.45 510.21 V488.21 H154.35 V420.32"/></g><g class="node-wire"><title>Massa</title><path class="wire mixed-signal" d="M154.35 420.32 V442.32 H237.18 V404.9"/></g><g class="node-wire"><title>Massa</title><path class="wire mixed-signal" d="M237.18 404.9 V426.9 H362.79 V285.84"/></g><g class="node-wire"><title>Massa</title><path class="wire idle" d="M362.79 285.84 V307.84 H398.44 V283.25 H550.36 V261.25"/></g><g class="node-wire"><title>Massa</title><path class="wire transient" d="M61.56 330.3 V488.21 H187.45 V510.21"/></g><g class="node-wire"><title>N002 | -9 V | 2 terminali</title><path class="wire active" d="M514.44 523.51 H536.44 V501.65 H528.43 V513.65 H550.43"/></g><g class="node-wire"><title>N003 | -1.55 V | 3 terminali</title><path class="wire active" d="M607.54 286.8 H585.54 V272.81 H556.36 Q550.36 266.81 544.36 272.81 H536.12 V277.25 Q542.12 283.25 536.12 289.25 V306.81"/></g><g class="node-wire"><title>N003 | -1.55 V | 3 terminali</title><path class="wire active" d="M607.54 286.8 H585.54 V179.85 H565.35 V201.85"/></g><g class="node-wire"><title>N004 | -9 V | 6 terminali</title><path class="wire active" d="M607.54 330.8 H585.54 V386.81 H536.12 V364.81"/></g><g class="node-wire"><title>N004 | -9 V | 6 terminali</title><path class="wire active" d="M536.12 364.81 V417.83 H496.62 V395.83"/></g><g class="node-wire"><title>N004 | -9 V | 6 terminali</title><path class="wire active" d="M496.62 395.83 V425.62 H386.73 V403.62"/></g><g class="node-wire"><title>N004 | -9 V | 6 terminali</title><path class="wire active" d="M386.73 403.62 V440.45 H296.7 V432.9 Q302.7 426.9 296.7 420.9 V406.45"/></g><g class="node-wire"><title>N004 | -9 V | 6 terminali</title><path class="wire active" d="M607.54 330.8 H585.54 V470.51 H656.43 V513.65 H634.43"/></g><g class="node-wire"><title>N001 | 0 V | 4 terminali</title><path class="wire mixed-signal" d="M125.94 252.34 H61.56 V268.3"/></g><g class="node-wire"><title>N001 | 0 V | 4 terminali</title><path class="wire mixed-signal" d="M125.94 252.34 H103.94 V306.32 H154.35 V328.32"/></g><g class="node-wire"><title>N001 | 0 V | 4 terminali</title><path class="wire mixed-signal" d="M154.35 328.32 V306.32 H237.18 V340.9"/></g><g class="node-wire"><title>N001 | 0 V | 4 terminali</title><path class="wire mixed-signal" d="M125.94 252.34 H103.94 V173.26 H189.38 V151.26"/></g><g class="node-wire"><title>N005 | -0 V | 2 terminali</title><path class="wire mixed-signal" d="M207.94 252.34 H233.86"/></g><g class="node-wire"><title>N007 | -0.12 V | 3 terminali</title><path class="wire active" d="M377.39 226.31 V204.31 H394.62 V227.41 H416.62"/></g><g class="node-wire"><title>N007 | -0.12 V | 3 terminali</title><path class="wire active" d="M377.39 226.31 V204.31 H386.73 V301.84 Q392.73 307.84 386.73 313.84 V311.62"/></g><g class="node-wire"><title>N006 | -0.79 V | 3 terminali</title><path class="wire active" d="M318.7 250.7 H291.86 V252.34"/></g><g class="node-wire"><title>N006 | -0.79 V | 3 terminali</title><path class="wire active" d="M291.86 252.34 H313.86 V292.45 H296.7 V314.45"/></g><g class="node-wire"><title>N008 | -0.81 V | 3 terminali</title><path class="wire active" d="M506.45 227.98 H474.62 V227.41"/></g><g class="node-wire"><title>N008 | -0.81 V | 3 terminali</title><path class="wire active" d="M506.45 227.98 H484.45 V246.8 H496.62 V277.25 Q502.62 283.25 496.62 289.25 V303.83"/></g></g>
<g class="components"><g class="component" transform="translate(468.44 523.51) rotate(0)"><g class="symbol"><rect class="battery-glow" x="-38" y="-30" width="76" height="60" rx="8"/><path d="M-46.00000000000003 0 H-32 M32 0 H46.00000000000003"/><rect class="battery-body" x="-32" y="-24" width="64" height="48" rx="4"/><text class="battery-polarity positive" x="-16" y="5" transform="rotate(-0 -16 0)">+</text><text class="battery-polarity" x="16" y="5" transform="rotate(-0 16 0)">-</text></g><path class="component-flow" d="M-46.00000000000003 0 H-32"/></g><text class="component-label" style="text-anchor:middle" x="468.44" y="479.51"><tspan x="468.44" y="479.51">9 V</tspan></text><g class="component headset"><g class="symbol"><path d="M607.54 286.8 H631.54 M607.54 330.8 H631.54 M651.54 286.8 H663.54 M651.54 330.8 H663.54 M663.54 286.8 Q695.54 308.8 663.54 330.8"/><ellipse cx="641.54" cy="286.8" rx="10" ry="15"/><ellipse cx="641.54" cy="330.8" rx="10" ry="15"/><ellipse cx="641.54" cy="286.8" rx="5" ry="9"/><ellipse cx="641.54" cy="330.8" rx="5" ry="9"/><path class="audio-wave wave-1 active" d="M702.54 298.8 Q711.54 308.8 702.54 318.8"/><path class="audio-wave wave-2 active" d="M710.54 291.8 Q725.54 308.8 710.54 325.8"/></g><path class="component-flow" d="M607.54 286.8 H631.54 M607.54 330.8 H631.54 M651.54 286.8 H663.54 M651.54 330.8 H663.54 M663.54 286.8 Q695.54 308.8 663.54 330.8"/></g><text class="component-label" style="text-anchor:middle" x="651.54" y="250.8"><tspan x="651.54" y="243.8">Headset J1/J2</tspan><tspan x="651.54" y="257.8">2 kohm eq.</tspan></text><g class="component" transform="translate(166.94 252.34) rotate(0)"><g class="symbol"><path d="M-41.000000000000014 0 H-18 M-18 -18 L18 0 L-18 18 Z M18 -20 V20 M18 0 H41.000000000000014"/></g><path class="component-flow mixed-signal" d="M-41.000000000000014 0 H41.000000000000014"/></g><text class="component-label" style="text-anchor:middle" x="242.94" y="214.34"><tspan x="242.94" y="214.34">D_GENERIC</tspan></text><g class="component" transform="translate(154.35 374.32) rotate(90)"><g class="symbol"><path d="M-46.0 0 H-30 C-30 -20 -10 -20 -10 0 C-10 -20 10 -20 10 0 C10 -20 30 -20 30 0 H46.0"/></g></g><text class="component-label" style="text-anchor:end" x="120.35" y="378.32"><tspan x="120.35" y="378.32">0.00025</tspan></text><g class="symbol transistor"><circle cx="353.67" cy="252.05" r="31"/><path d="M318.7 250.7 H347.67 M347.67 234.05 V270.05 M347.67 234.05 L377.39 226.31 M347.67 270.05 L362.79 285.84"/><path d="M355.9 285.88 L351.91 274.47 L363.12 278.96"/><text class="component-label" x="353.67" y="212.05">Q1</text></g><g class="symbol transistor"><circle cx="541.44" cy="227.41" r="31"/><path d="M506.45 227.98 H535.44 M535.44 209.41 V245.41 M535.44 209.41 L565.35 201.85 M535.44 245.41 L550.36 261.25"/><path d="M543.52 261.28 L539.62 249.85 L550.8 254.43"/><text class="component-label" x="541.44" y="187.41">Q2</text></g><g class="component" transform="translate(237.18 372.9) rotate(90)"><g class="symbol"><path d="M-32.0 0 H-8 M8 -20 Q-4 0 8 20 M-8 -20 V20 M8 0 H32.0"/><text class="battery-polarity positive" x="-16" y="5" transform="rotate(-90 -16 0)">+</text><text class="battery-polarity" x="16" y="5" transform="rotate(-90 16 0)">-</text><path d="M-23 25 L23 -25 M14 -25 H23 V-16"/></g><path class="component-flow mixed-signal" d="M-32.0 0 H-8 M8 0 H32.0"/></g><text class="component-label" style="text-anchor:middle" x="275.18" y="426.9"><tspan x="275.18" y="419.9">C1</tspan><tspan x="275.18" y="433.9">375 pF</tspan></text><g class="component" transform="translate(262.86 252.34) rotate(0)"><g class="symbol"><path d="M-29.00000000000003 0 H-8 M8 -20 Q-4 0 8 20 M-8 -20 V20 M8 0 H29.00000000000003"/><text class="battery-polarity positive" x="-16" y="5" transform="rotate(-0 -16 0)">+</text><text class="battery-polarity" x="16" y="5" transform="rotate(-0 16 0)">-</text></g><path class="component-flow" d="M-29.00000000000003 0 H-8 M8 0 H29.00000000000003"/></g><text class="component-label" style="text-anchor:middle" x="186.86" y="206.34"><tspan x="186.86" y="199.34">C2</tspan><tspan x="186.86" y="213.34">0.022 uF</tspan></text><g class="component" transform="translate(445.62 227.41) rotate(0)"><g class="symbol"><path d="M-29.0 0 H-8 M8 -20 Q-4 0 8 20 M-8 -20 V20 M8 0 H29.0"/><text class="battery-polarity positive" x="-16" y="5" transform="rotate(-0 -16 0)">+</text><text class="battery-polarity" x="16" y="5" transform="rotate(-0 16 0)">-</text></g><path class="component-flow" d="M-29.0 0 H-8 M8 0 H29.0"/></g><text class="component-label" style="text-anchor:middle" x="445.62" y="181.41"><tspan x="445.62" y="174.41">C3</tspan><tspan x="445.62" y="188.41">0.022 uF</tspan></text><g class="component" transform="translate(536.12 335.81) rotate(90)"><g class="symbol"><path d="M-29.0 0 H-8 M8 -20 Q-4 0 8 20 M-8 -20 V20 M8 0 H29.0"/><text class="battery-polarity positive" x="-16" y="5" transform="rotate(-90 -16 0)">+</text><text class="battery-polarity" x="16" y="5" transform="rotate(-90 16 0)">-</text></g><path class="component-flow" d="M-29.0 0 H-8 M8 0 H29.0"/></g><text class="component-label" style="text-anchor:middle" x="574.12" y="386.81"><tspan x="574.12" y="379.81">C4</tspan><tspan x="574.12" y="393.81">0.001 uF</tspan></text><g class="component" transform="translate(296.7 360.45) rotate(90)"><g class="symbol"><path d="M-46.0 0 H-36 L-30 -14 L-18 14 L-6 -14 L6 14 L18 -14 L30 14 L36 0 H46.0"/></g><path class="component-flow" d="M-46.0 0 H-36 L-30 -14 L-18 14 L-6 -14 L6 14 L18 -14 L30 14 L36 0 H46.0"/></g><text class="component-label" style="text-anchor:middle" x="334.7" y="428.45"><tspan x="334.7" y="421.45">R1</tspan><tspan x="334.7" y="435.45">220 kohm</tspan></text><g class="component" transform="translate(386.73 357.62) rotate(90)"><g class="symbol"><path d="M-46.0 0 H-36 L-30 -14 L-18 14 L-6 -14 L6 14 L18 -14 L30 14 L36 0 H46.0"/></g><path class="component-flow" d="M-46.0 0 H-36 L-30 -14 L-18 14 L-6 -14 L6 14 L18 -14 L30 14 L36 0 H46.0"/></g><text class="component-label" style="text-anchor:middle" x="424.73" y="425.62"><tspan x="424.73" y="418.62">R2</tspan><tspan x="424.73" y="432.62">4.7 kohm</tspan></text><g class="component" transform="translate(496.62 349.83) rotate(90)"><g class="symbol"><path d="M-46.0 0 H-36 L-30 -14 L-18 14 L-6 -14 L6 14 L18 -14 L30 14 L36 0 H46.0"/></g><path class="component-flow" d="M-46.0 0 H-36 L-30 -14 L-18 14 L-6 -14 L6 14 L18 -14 L30 14 L36 0 H46.0"/></g><text class="component-label" style="text-anchor:middle" x="534.62" y="417.83"><tspan x="534.62" y="410.83">R3</tspan><tspan x="534.62" y="424.83">220 kohm</tspan></text><g class="component antenna"><g class="symbol"><path d="M189.38 151.26 V91.26 M189.38 91.26 L165.38 57.26 H213.38 Z"/><path class="radio-wave wave-1" d="M159.38 61.26 Q146.38 74.26 156.38 89.26"/><path class="radio-wave wave-2" d="M150.38 53.26 Q131.38 74.26 146.38 98.26"/><path class="radio-wave wave-1" d="M219.38 61.26 Q232.38 74.26 222.38 89.26"/><path class="radio-wave wave-2" d="M228.38 53.26 Q247.38 74.26 232.38 98.26"/></g></g><text class="component-label" style="text-anchor:middle" x="189.38" y="45.26"><tspan x="189.38" y="45.26">Antenna</tspan></text><g class="symbol ground" transform="translate(187.45 510.21)"><path d="M0 0 V12 M-22 12 H22 M-14 21 H14 M-6 30 H6"/></g><g class="component" transform="translate(592.43 513.65) rotate(0)"><g class="symbol"><circle cx="-42.0" cy="0" r="4"/><circle cx="42.0" cy="0" r="4"/><path d="M-34.0 0 H34.0"/></g></g><text class="component-label" style="text-anchor:middle" x="592.43" y="476.65"><tspan x="592.43" y="476.65">SW</tspan></text><g class="scenario-added-component"><title>Sorgente di tensione da SIN(0 100m 1000) aggiunta dallo scenario tra N001 e 0</title><g class="component" transform="translate(61.56 299.3) rotate(90)"><g class="symbol"><path d="M-31.0 0 H-25 M25 0 H31.0"/><circle cx="0" cy="0" r="25"/><path class="source-wave" d="M-16 0 C-11 -12 -5 -12 0 0 C5 12 11 12 16 0"/></g><path class="component-flow transient" d="M-31.0 0 H-25 M-16 0 C-11 -12 -5 -12 0 0 C5 12 11 12 16 0 M25 0 H31.0"/></g><text class="component-label" style="text-anchor:end" x="27.56" y="303.3"><tspan x="27.56" y="296.3">SINE</tspan><tspan x="27.56" y="310.3">100 mV / 1 kHz</tspan></text></g></g>
<g class="node-badges"><g class="node-badge"><title>N001 | 0 V | 4 terminali</title><rect x="71.35" y="226.34" width="44.8" height="20" rx="4"/><text x="93.75" y="240.34">N001</text></g><g class="node-badge"><title>N002 | -9 V | 2 terminali</title><rect x="503.04" y="529.51" width="44.8" height="20" rx="4"/><text x="525.44" y="543.51">N002</text></g><g class="node-badge"><title>N003 | -1.55 V | 3 terminali</title><rect x="538.43" y="278.81" width="44.8" height="20" rx="4"/><text x="560.83" y="292.81">N003</text></g><g class="node-badge"><title>N004 | -9 V | 6 terminali</title><rect x="538.43" y="392.81" width="44.8" height="20" rx="4"/><text x="560.83" y="406.81">N004</text></g><g class="node-badge"><title>N005 | -0 V | 2 terminali</title><rect x="198.5" y="226.34" width="44.8" height="20" rx="4"/><text x="220.9" y="240.34">N005</text></g><g class="node-badge"><title>N006 | -0.79 V | 3 terminali</title><rect x="292.3" y="293.45" width="44.8" height="20" rx="4"/><text x="314.7" y="307.45">N006</text></g><g class="node-badge"><title>N007 | -0.12 V | 3 terminali</title><rect x="382.33" y="247.97" width="44.8" height="20" rx="4"/><text x="404.73" y="261.97">N007</text></g><g class="node-badge"><title>N008 | -0.81 V | 3 terminali</title><rect x="456.22" y="265.31" width="44.8" height="20" rx="4"/><text x="478.62" y="279.31">N008</text></g></g>
<g class="node-constraints"></g>
<g class="legend" transform="translate(835 24)"><rect width="180" height="188" rx="6"/><text class="legend-title" x="14" y="22">Stati</text><path class="wire energized" d="M14 42 H54"/><text x="68" y="46">tensione presente</text><path class="wire active" d="M14 68 H54"/><text x="68" y="72">corrente DC</text><path class="wire transient" d="M14 94 H54"/><text x="68" y="98">segnale variabile</text><path class="wire mixed-signal" d="M14 120 H54"/><text x="68" y="124">DC + segnale</text><path class="wire idle" d="M14 146 H54"/><text x="68" y="150">nessuna corrente</text><circle class="constraint-node" cx="34" cy="170" r="5"/><text x="68" y="174">vincolo scenario</text></g>
</svg>