<svg class="viewer-svg" data-viewer-version="22" xmlns="http://www.w3.org/2000/svg" viewBox="0 0 1040 620" role="img" aria-label="Circuito equivalente dalla netlist SPICE">
<defs><filter id="ledGlow" x="-100%" y="-100%" width="300%" height="300%"><feGaussianBlur stdDeviation="8"/></filter></defs>
<style>.viewer-svg{background:transparent;font-family:Arial,sans-serif}.wire,.symbol path,.symbol circle,.symbol rect,.connector rect,.connector circle{fill:none;stroke:#f4f7fb;stroke-width:3;stroke-linecap:round;stroke-linejoin:round}.wire.energized{fill:none;stroke:#22c55e;stroke-width:3;stroke-linecap:round;stroke-linejoin:round}.wire.active,.component-flow,.transistor-flow{fill:none;stroke:#dce51a;stroke-width:3;stroke-linecap:round;stroke-linejoin:round;stroke-dasharray:9 10;animation:viewerCurrent 1s linear infinite}.wire.transient,.component-flow.transient,.transistor-flow.transient{fill:none;stroke:#38bdf8;stroke-width:3;stroke-linecap:round;stroke-linejoin:round;stroke-dasharray:7 9;animation:viewerTransient 1.15s ease-in-out infinite alternate}.wire.idle{stroke:#aeb9c9;stroke-dasharray:10 8;opacity:.9}.wire.guide{stroke:#52647c;stroke-dasharray:3 11;opacity:.8}.scenario-link-idle{stroke:#aeb9c9!important;stroke-dasharray:10 8;opacity:.9}.scenario-link-component{cursor:help}.component-label{fill:#f4f7fb;font-size:13px;font-weight:700;text-anchor:middle;letter-spacing:0}.terminal-label{fill:#f4f7fb;font-size:12px;font-weight:700;letter-spacing:0}.pin-label{fill:#f4f7fb;font-size:12px;font-weight:700;text-anchor:end;letter-spacing:0}.battery-polarity{fill:#cbd5e1;font-size:19px;font-weight:700;text-anchor:middle;letter-spacing:0}.battery-polarity.positive{fill:#f8fafc}.battery-body{fill:#0b1728!important}.scenario-battery-body{fill:#082334!important;stroke:#38bdf8!important}.scenario-added-component,.scenario-modified-component{cursor:help;filter:drop-shadow(0 0 3px rgba(245,158,11,.62))}.scenario-added-component .symbol path,.scenario-added-component .symbol circle,.scenario-added-component .symbol rect,.scenario-modified-component .symbol path,.scenario-modified-component .symbol circle,.scenario-modified-component .symbol rect{stroke:#f59e0b}.scenario-badge{cursor:help}.scenario-badge circle{fill:#111827;stroke:#f59e0b;stroke-width:2}.scenario-badge text{fill:#fbbf24;font-size:12px;font-weight:700;text-anchor:middle;letter-spacing:0}.battery-glow{fill:#dce51a!important;opacity:.16;stroke:none!important;filter:url(#ledGlow);animation:viewerBatteryPulse 1.5s ease-in-out infinite}.scenario-source-glow{fill:#38bdf8!important;opacity:.15;stroke:none!important;filter:url(#ledGlow);animation:viewerScenarioPulse 1.5s ease-in-out infinite}.led-glow{fill:#ef4444;filter:url(#ledGlow);stroke:none}.led-glow.led-color-red{fill:#ef4444}.led-glow.led-color-yellow{fill:#facc15}.led-glow.led-color-green{fill:#22c55e}.led-glow.led-steady{opacity:.3}.led-color-red .led-rays{stroke:#ff4d5a!important}.led-color-yellow .led-rays{stroke:#fde047!important}.led-color-green .led-rays{stroke:#4ade80!important}.lamp-glow{fill:#ffd84a;opacity:.24;filter:url(#ledGlow);animation:viewerLampPulse 1.4s ease-in-out infinite}.meter-body{fill:#0b1728!important}.meter-glow{fill:#dce51a!important;opacity:.13;stroke:none!important;filter:url(#ledGlow);animation:viewerMeterPulse 1.5s ease-in-out infinite}.meter-scale,.meter-tick{stroke:#94a3b8!important;stroke-width:2!important}.meter-needle{stroke:#dce51a!important;stroke-width:2.5!important}.meter-pivot{fill:#dce51a!important;stroke:none!important}.meter-name{fill:#f4f7fb;font-size:13px;font-weight:700;text-anchor:middle;letter-spacing:0}.meter-reading{fill:#dce51a;font-size:12px;font-weight:700;text-anchor:middle;letter-spacing:0}.source-wave{stroke-width:2.5!important}.legend rect{fill:#06101d;stroke:#314257}.legend text{fill:#d7dfeb;font-size:11px;letter-spacing:0}.legend-title{font-weight:700}.legend .wire{stroke-width:3}.connector rect{fill:#0b1728}.connector circle{fill:#0b1728}@keyframes viewerCurrent{to{stroke-dashoffset:-38}}@keyframes viewerTransient{from{stroke-dashoffset:18;opacity:.68}to{stroke-dashoffset:-18;opacity:1}}@keyframes viewerLampPulse{0%,100%{opacity:.16}50%{opacity:.38}}@keyframes viewerBatteryPulse{0%,100%{opacity:.1}50%{opacity:.24}}@keyframes viewerScenarioPulse{0%,100%{opacity:.08}50%{opacity:.24}}@keyframes viewerMeterPulse{0%,100%{opacity:.08}50%{opacity:.2}}@media (prefers-reduced-motion:reduce){.wire.active,.wire.transient,.component-flow,.transistor-flow,.lamp-glow,.battery-glow,.scenario-source-glow,.meter-glow{animation:none}}</style>
<style>.terminal-port circle{fill:#071525!important}</style>
<style>.meter-needle-group{transform-origin:0px 9px;transform-box:fill-box}.meter-needle-group.meter-active{animation:viewerMeterNeedle .7s cubic-bezier(.22,.85,.32,1) both}.meter-live{fill:#dce51a;stroke:none;filter:url(#ledGlow);animation:viewerMeterLive 1.35s ease-in-out infinite}.meter-reading.meter-active{animation:viewerMeterReading 1.35s ease-in-out infinite}@keyframes viewerMeterNeedle{from{transform:rotate(-150deg)}to{transform:rotate(var(--needle-angle))}}@keyframes viewerMeterLive{0%,100%{opacity:.45}50%{opacity:1}}@keyframes viewerMeterReading{0%,100%{opacity:.78}50%{opacity:1}}@media (prefers-reduced-motion:reduce){.meter-needle-group.meter-active{animation:none;transform:rotate(var(--needle-angle))}.meter-live,.meter-reading.meter-active{animation:none}}</style>
<style>.wire.signal-overlay,.component-flow.signal-overlay,.transistor-flow.signal-overlay{fill:none;stroke:#38bdf8;stroke-width:1.5;stroke-linecap:round;stroke-linejoin:round;stroke-dasharray:3 8;animation:viewerSignalOverlay 1.15s linear infinite}@keyframes viewerSignalOverlay{to{stroke-dashoffset:-22}}@media (prefers-reduced-motion:reduce){.wire.signal-overlay,.component-flow.signal-overlay,.transistor-flow.signal-overlay{animation:none}}</style>
<style>.node-constraint{cursor:help}.constraint-leader{fill:none;stroke:#38bdf8;stroke-width:2;stroke-dasharray:4 6;opacity:.8}.constraint-halo{fill:#38bdf8;stroke:none;opacity:.16;filter:url(#ledGlow);animation:viewerConstraintPulse 1.5s ease-in-out infinite}.constraint-node{fill:#071525;stroke:#38bdf8;stroke-width:3}.constraint-badge{fill:#082334;stroke:#38bdf8;stroke-width:1.5}.constraint-label{fill:#dff6ff;font-size:12px;font-weight:700;text-anchor:middle;letter-spacing:0}@keyframes viewerConstraintPulse{0%,100%{opacity:.1}50%{opacity:.28}}@media (prefers-reduced-motion:reduce){.constraint-halo{animation:none}}</style>
<style>.node-wire{cursor:help}.node-badge{cursor:help}.node-badge rect{fill:#0b1728;fill-opacity:.9;stroke:#52647c;stroke-width:1}.node-badge text{fill:#d7dfeb;font-size:11px;font-weight:700;text-anchor:middle;letter-spacing:0}.node-badge:hover rect{stroke:#38bdf8;fill:#082334}.node-badge:hover text{fill:#dff6ff}</style>
<style>.headset .symbol ellipse{fill:none;stroke:#f4f7fb;stroke-width:3}.headset .audio-wave,.speaker .audio-wave,.antenna .radio-wave{fill:none;stroke:#f4f7fb;stroke-width:2;stroke-linecap:round;opacity:.5}.headset .audio-wave.active,.speaker .audio-wave.active{stroke:#38bdf8;animation:viewerAudioWave 1.25s ease-out infinite}.headset .audio-wave.wave-2.active,.speaker .audio-wave.wave-2.active{animation-delay:.18s}.antenna .radio-wave{animation:viewerRadioWave 1.8s ease-in-out infinite}.antenna .radio-wave.wave-2{animation-delay:.3s}@keyframes viewerAudioWave{0%{opacity:.2}55%{opacity:1}100%{opacity:.2}}@keyframes viewerRadioWave{0%,100%{opacity:.25}50%{opacity:.8}}@media (prefers-reduced-motion:reduce){.headset .audio-wave.active,.speaker .audio-wave.active,.antenna .radio-wave{animation:none}}</style>
<g class="connections"><g class="node-wire"><title>N002 | 9 V | 5 terminali</title><path class="wire active" d="M172.97 258.49 V183.26 H388.75 V205.26"/><path class="wire active signal-overlay" d="M172.97 258.49 V183.26 H388.75 V205.26"/></g><g class="node-wire"><title>N002 | 9 V | 5 terminali</title><path class="wire active" d="M388.75 205.26 V182.65 H489.7 V204.65"/><path class="wire active signal-overlay" d="M388.75 205.26 V182.65 H489.7 V204.65"/></g><g class="node-wire"><title>N002 | 9 V | 5 terminali</title><path class="wire active" d="M388.75 205.26 V64.37 H291.71 V86.37"/><path class="wire active signal-overlay" d="M388.75 205.26 V64.37 H291.71 V86.37"/></g><g class="node-wire"><title>N002 | 9 V | 5 terminali</title><path class="wire active" d="M489.7 204.65 V63.82 H622.14 V85.82"/><path class="wire active signal-overlay" d="M489.7 204.65 V63.82 H622.14 V85.82"/></g><g class="node-wire"><title>N001 | 0 V | 3 terminali</title><path class="wire active" d="M172.97 350.49 V545.67 H276.45 V523.67"/><path class="wire active signal-overlay" d="M172.97 350.49 V545.67 H276.45 V523.67"/></g><g class="node-wire"><title>N001 | 0 V | 3 terminali</title><path class="wire active" d="M276.45 523.67 V546.86 H600.06 V524.86"/><path class="wire active signal-overlay" d="M276.45 523.67 V546.86 H600.06 V524.86"/></g><g class="node-wire"><title>N003 | 7.28 V | 2 terminali</title><path class="wire active" d="M291.71 168.37 V177.26 Q297.71 183.26 291.71 189.26 V190.37 H280.76 V189.26 Q286.76 183.26 280.76 177.26 V183.2 H273.75 V177.26 Q279.75 183.26 273.75 189.26 V205.2"/><path class="wire active signal-overlay" d="M291.71 168.37 V177.26 Q297.71 183.26 291.71 189.26 V190.37 H280.76 V189.26 Q286.76 183.26 280.76 177.26 V183.2 H273.75 V177.26 Q279.75 183.26 273.75 189.26 V205.2"/></g><g class="node-wire"><title>N004 | 7.28 V | 2 terminali</title><path class="wire active" d="M622.14 167.82 V189.82 H597.83 V182.94 H603.84 V204.94"/><path class="wire active signal-overlay" d="M622.14 167.82 V189.82 H597.83 V182.94 H603.84 V204.94"/></g><g class="node-wire"><title>N006 | 0.15 V | 3 terminali</title><path class="wire active" d="M276.43 456.3 V357.26 H304.76"/><path class="wire active signal-overlay" d="M276.43 456.3 V357.26 H304.76"/></g><g class="node-wire"><title>N006 | 0.15 V | 3 terminali</title><path class="wire active" d="M304.76 357.26 H273.75 V297.2"/><path class="wire active signal-overlay" d="M304.76 357.26 H273.75 V297.2"/></g><g class="node-wire"><title>N005 | 0.75 V | 3 terminali</title><path class="wire active" d="M320.94 490.04 H493.83 V356.94 H515.83"/><path class="wire active signal-overlay" d="M320.94 490.04 H493.83 V356.94 H515.83"/></g><g class="node-wire"><title>N005 | 0.75 V | 3 terminali</title><path class="wire active" d="M515.83 356.94 H489.7 V296.65"/><path class="wire active signal-overlay" d="M515.83 356.94 H489.7 V296.65"/></g><g class="node-wire"><title>N008 | 0.15 V | 3 terminali</title><path class="wire active" d="M600.12 456.45 V356.94 H573.83"/><path class="wire active signal-overlay" d="M600.12 456.45 V356.94 H573.83"/></g><g class="node-wire"><title>N008 | 0.15 V | 3 terminali</title><path class="wire active" d="M573.83 356.94 H603.84 V296.94"/><path class="wire active signal-overlay" d="M573.83 356.94 H603.84 V296.94"/></g><g class="node-wire"><title>N007 | 0.75 V | 3 terminali</title><path class="wire active" d="M557.67 490.07 H535.67 V430.98 H499.83 Q493.83 424.98 487.83 430.98 H384.76 V357.26 H362.76"/><path class="wire active signal-overlay" d="M557.67 490.07 H535.67 V430.98 H499.83 Q493.83 424.98 487.83 430.98 H384.76 V357.26 H362.76"/></g><g class="node-wire"><title>N007 | 0.75 V | 3 terminali</title><path class="wire active" d="M362.76 357.26 H388.75 V297.26"/><path class="wire active signal-overlay" d="M362.76 357.26 H388.75 V297.26"/></g></g>
<g class="components"><g class="component" transform="translate(172.97 304.49) rotate(90)"><g class="symbol"><rect class="battery-glow" x="-38" y="-30" width="76" height="60" rx="8"/><path d="M-46.0 0 H-32 M32 0 H46.0"/><rect class="battery-body" x="-32" y="-24" width="64" height="48" rx="4"/><text class="battery-polarity positive" x="-16" y="5" transform="rotate(-90 -16 0)">+</text><text class="battery-polarity" x="16" y="5" transform="rotate(-90 16 0)">-</text></g><path class="component-flow" d="M-46.0 0 H-32"/></g><text class="component-label" style="text-anchor:start" x="206.97" y="308.49"><tspan x="206.97" y="308.49">9 V</tspan></text><g class="component led-color-red" transform="translate(291.71 127.37) rotate(90)"><g class="symbol"><ellipse class="led-glow led-transient-profile led-color-red" cx="0" cy="0" rx="42" ry="30" opacity="0.08"><title>LED: lampeggio misurato dal transitorio, 2.27 Hz, duty cycle 33.27%. Riproduzione rallentata.</title><animate attributeName="opacity" values="0.08;0.48;0.48;0.08;0.08" keyTimes="0;0.02;0.54;0.56;1" dur="4.4s" repeatCount="indefinite"/></ellipse><path d="M-41.0 0 H-18 M-18 -18 L18 0 L-18 18 Z M18 -20 V20 M18 0 H41.0"/><path class="led-rays" d="M5 -20 L17 -34 M20 -16 L32 -30"/></g><path class="component-flow" d="M-41.0 0 H41.0"/><path class="component-flow signal-overlay" d="M-41.0 0 H41.0"/></g><text class="component-label" style="text-anchor:start" x="325.71" y="131.37"><tspan x="325.71" y="124.37">L1</tspan><tspan x="325.71" y="138.37">LED</tspan></text><g class="component led-color-red" transform="translate(622.14 126.82) rotate(90)"><g class="symbol"><ellipse class="led-glow led-transient-profile led-color-red" cx="0" cy="0" rx="42" ry="30" opacity="0.08"><title>LED: lampeggio misurato dal transitorio, 2.27 Hz, duty cycle 70.28%. Riproduzione rallentata.</title><animate attributeName="opacity" values="0.08;0.48;0.48;0.08;0.08" keyTimes="0;0.02;0.75;0.77;1" dur="4.4s" repeatCount="indefinite"/></ellipse><path d="M-41.0 0 H-18 M-18 -18 L18 0 L-18 18 Z M18 -20 V20 M18 0 H41.0"/><path class="led-rays" d="M5 -20 L17 -34 M20 -16 L32 -30"/></g><path class="component-flow" d="M-41.0 0 H41.0"/><path class="component-flow signal-overlay" d="M-41.0 0 H41.0"/></g><text class="component-label" style="text-anchor:start" x="656.14" y="130.82"><tspan x="656.14" y="123.82">L2</tspan><tspan x="656.14" y="137.82">LED</tspan></text><g class="symbol transistor"><circle cx="285.94" cy="489.98" r="31"/><path d="M320.94 490.04 H291.94 M291.94 471.98 V507.98 M291.94 471.98 L276.43 456.3 M291.94 507.98 L276.45 523.67"/><path d="M284.96 507.94 L280.79 519.28 L292.08 514.96"/><path class="transistor-flow" d="M320.94 490.04 H291.94 M291.94 471.98 V507.98 M291.94 471.98 L276.43 456.3 M291.94 507.98 L276.45 523.67"/><path class="transistor-flow signal-overlay" d="M320.94 490.04 H291.94 M291.94 471.98 V507.98 M291.94 471.98 L276.43 456.3 M291.94 507.98 L276.45 523.67"/><text class="component-label" x="285.94" y="449.98">Q1</text></g><g class="symbol transistor"><circle cx="592.67" cy="490.65" r="31"/><path d="M557.67 490.07 H586.67 M586.67 472.65 V508.65 M586.67 472.65 L600.12 456.45 M586.67 508.65 L600.06 524.86"/><path d="M585.45 515.02 L596.31 520.32 L593.16 508.66"/><path class="transistor-flow" d="M557.67 490.07 H586.67 M586.67 472.65 V508.65 M586.67 472.65 L600.12 456.45 M586.67 508.65 L600.06 524.86"/><path class="transistor-flow signal-overlay" d="M557.67 490.07 H586.67 M586.67 472.65 V508.65 M586.67 472.65 L600.12 456.45 M586.67 508.65 L600.06 524.86"/><text class="component-label" x="592.67" y="450.65">Q2</text></g><g class="scenario-modified-component"><title>Componente modificato dallo scenario: 10u -&gt; 4.7u</title><g class="component" transform="translate(333.76 357.26) rotate(0)"><g class="symbol"><path d="M-29.0 0 H-8 M8 -20 Q-4 0 8 20 M-8 -20 V20 M8 0 H29.0"/><text class="battery-polarity positive" x="-16" y="5" transform="rotate(-0 -16 0)">+</text><text class="battery-polarity" x="16" y="5" transform="rotate(-0 16 0)">-</text></g><path class="component-flow" d="M-29.0 0 H-8 M8 0 H29.0"/><path class="component-flow signal-overlay" d="M-29.0 0 H-8 M8 0 H29.0"/></g><text class="component-label" style="text-anchor:middle" x="333.76" y="403.26"><tspan x="333.76" y="396.26">C1</tspan><tspan x="333.76" y="410.26">4.7 uF</tspan></text></g><g class="component" transform="translate(544.83 356.94) rotate(0)"><g class="symbol"><path d="M-29.0 0 H-8 M-8 -20 Q4 0 -8 20 M8 -20 V20 M8 0 H29.0"/><text class="battery-polarity positive" x="16" y="5" transform="rotate(-0 16 0)">+</text><text class="battery-polarity" x="-16" y="5" transform="rotate(-0 -16 0)">-</text></g><path class="component-flow" d="M-29.0 0 H-8 M8 0 H29.0"/><path class="component-flow signal-overlay" d="M-29.0 0 H-8 M8 0 H29.0"/></g><text class="component-label" style="text-anchor:middle" x="620.83" y="402.94"><tspan x="620.83" y="395.94">C2</tspan><tspan x="620.83" y="409.94">10 uF nominale (valore non visibile)</tspan></text><g class="component" transform="translate(273.75 251.2) rotate(90)"><g class="symbol"><path d="M-46.0 0 H-36 L-30 -14 L-18 14 L-6 -14 L6 14 L18 -14 L30 14 L36 0 H46.0"/></g><path class="component-flow" d="M-46.0 0 H-36 L-30 -14 L-18 14 L-6 -14 L6 14 L18 -14 L30 14 L36 0 H46.0"/><path class="component-flow signal-overlay" d="M-46.0 0 H-36 L-30 -14 L-18 14 L-6 -14 L6 14 L18 -14 L30 14 L36 0 H46.0"/></g><text class="component-label" style="text-anchor:start" x="307.75" y="255.2"><tspan x="307.75" y="248.2">R1</tspan><tspan x="307.75" y="262.2">470 ohm</tspan></text><g class="component" transform="translate(388.75 251.26) rotate(90)"><g class="symbol"><path d="M-46.00000000000006 0 H-36 L-30 -14 L-18 14 L-6 -14 L6 14 L18 -14 L30 14 L36 0 H46.00000000000006"/></g><path class="component-flow" d="M-46.00000000000006 0 H-36 L-30 -14 L-18 14 L-6 -14 L6 14 L18 -14 L30 14 L36 0 H46.00000000000006"/><path class="component-flow signal-overlay" d="M-46.00000000000006 0 H-36 L-30 -14 L-18 14 L-6 -14 L6 14 L18 -14 L30 14 L36 0 H46.00000000000006"/></g><text class="component-label" style="text-anchor:end" x="354.75" y="293.26"><tspan x="354.75" y="286.26">R2</tspan><tspan x="354.75" y="300.26">47 kohm</tspan></text><g class="component" transform="translate(489.7 250.65) rotate(90)"><g class="symbol"><path d="M-45.99999999999997 0 H-36 L-30 -14 L-18 14 L-6 -14 L6 14 L18 -14 L30 14 L36 0 H45.99999999999997"/></g><path class="component-flow" d="M-45.99999999999997 0 H-36 L-30 -14 L-18 14 L-6 -14 L6 14 L18 -14 L30 14 L36 0 H45.99999999999997"/><path class="component-flow signal-overlay" d="M-45.99999999999997 0 H-36 L-30 -14 L-18 14 L-6 -14 L6 14 L18 -14 L30 14 L36 0 H45.99999999999997"/></g><text class="component-label" style="text-anchor:start" x="523.7" y="254.65"><tspan x="523.7" y="247.65">R3</tspan><tspan x="523.7" y="261.65">47 kohm</tspan></text><g class="component" transform="translate(603.84 250.94) rotate(90)"><g class="symbol"><path d="M-45.99999999999993 0 H-36 L-30 -14 L-18 14 L-6 -14 L6 14 L18 -14 L30 14 L36 0 H45.99999999999993"/></g><path class="component-flow" d="M-45.99999999999993 0 H-36 L-30 -14 L-18 14 L-6 -14 L6 14 L18 -14 L30 14 L36 0 H45.99999999999993"/><path class="component-flow signal-overlay" d="M-45.99999999999993 0 H-36 L-30 -14 L-18 14 L-6 -14 L6 14 L18 -14 L30 14 L36 0 H45.99999999999993"/></g><text class="component-label" style="text-anchor:start" x="637.84" y="254.94"><tspan x="637.84" y="247.94">R4</tspan><tspan x="637.84" y="261.94">470 ohm</tspan></text></g>
<g class="node-badges"><g class="node-badge"><title>N001 | 0 V | 3 terminali</title><rect x="168.57" y="404.9" width="44.8" height="20" rx="4"/><text x="190.97" y="418.9">N001</text></g><g class="node-badge"><title>N002 | 9 V | 5 terminali</title><rect x="168.57" y="223.66" width="44.8" height="20" rx="4"/><text x="190.97" y="237.66">N002</text></g><g class="node-badge"><title>N003 | 7.28 V | 2 terminali</title><rect x="269.35" y="180.46" width="44.8" height="20" rx="4"/><text x="291.75" y="194.46">N003</text></g><g class="node-badge"><title>N004 | 7.28 V | 2 terminali</title><rect x="599.44" y="180.2" width="44.8" height="20" rx="4"/><text x="621.84" y="194.2">N004</text></g><g class="node-badge"><title>N005 | 0.75 V | 3 terminali</title><rect x="355.59" y="464.04" width="44.8" height="20" rx="4"/><text x="377.99" y="478.04">N005</text></g><g class="node-badge"><title>N006 | 0.15 V | 3 terminali</title><rect x="236.03" y="413.62" width="44.8" height="20" rx="4"/><text x="258.43" y="427.62">N006</text></g><g class="node-badge"><title>N007 | 0.75 V | 3 terminali</title><rect x="495.27" y="460.57" width="44.8" height="20" rx="4"/><text x="517.67" y="474.57">N007</text></g><g class="node-badge"><title>N008 | 0.15 V | 3 terminali</title><rect x="599.44" y="327.14" width="44.8" height="20" rx="4"/><text x="621.84" y="341.14">N008</text></g></g>
<g class="node-constraints"></g>
<g class="legend" transform="translate(835 24)"><rect width="180" height="188" rx="6"/><text class="legend-title" x="14" y="22">Stati</text><path class="wire energized" d="M14 42 H54"/><text x="68" y="46">tensione presente</text><path class="wire active" d="M14 68 H54"/><text x="68" y="72">corrente DC</text><path class="wire transient" d="M14 94 H54"/><text x="68" y="98">segnale variabile</text><path class="wire active" d="M14 120 H54"/><path class="wire signal-overlay" d="M14 120 H54"/><text x="68" y="124">DC + segnale</text><path class="wire idle" d="M14 146 H54"/><text x="68" y="150">nessuna corrente</text><circle class="constraint-node" cx="34" cy="170" r="5"/><text x="68" y="174">vincolo scenario</text></g>
</svg>