<svg class="viewer-svg" data-viewer-version="22" xmlns="http://www.w3.org/2000/svg" viewBox="0 0 1040 620" role="img" aria-label="Circuito equivalente dalla netlist SPICE">
<defs><filter id="ledGlow" x="-100%" y="-100%" width="300%" height="300%"><feGaussianBlur stdDeviation="8"/></filter></defs>
<style>.viewer-svg{background:transparent;font-family:Arial,sans-serif}.wire,.symbol path,.symbol circle,.symbol rect,.connector rect,.connector circle{fill:none;stroke:#f4f7fb;stroke-width:3;stroke-linecap:round;stroke-linejoin:round}.wire.energized{fill:none;stroke:#22c55e;stroke-width:3;stroke-linecap:round;stroke-linejoin:round}.wire.active,.component-flow,.transistor-flow{fill:none;stroke:#dce51a;stroke-width:3;stroke-linecap:round;stroke-linejoin:round;stroke-dasharray:9 10;animation:viewerCurrent 1s linear infinite}.wire.transient,.component-flow.transient,.transistor-flow.transient{fill:none;stroke:#38bdf8;stroke-width:3;stroke-linecap:round;stroke-linejoin:round;stroke-dasharray:7 9;animation:viewerTransient 1.15s ease-in-out infinite alternate}.wire.idle{stroke:#aeb9c9;stroke-dasharray:10 8;opacity:.9}.wire.guide{stroke:#52647c;stroke-dasharray:3 11;opacity:.8}.scenario-link-idle{stroke:#aeb9c9!important;stroke-dasharray:10 8;opacity:.9}.scenario-link-component{cursor:help}.component-label{fill:#f4f7fb;font-size:13px;font-weight:700;text-anchor:middle;letter-spacing:0}.terminal-label{fill:#f4f7fb;font-size:12px;font-weight:700;letter-spacing:0}.pin-label{fill:#f4f7fb;font-size:12px;font-weight:700;text-anchor:end;letter-spacing:0}.battery-polarity{fill:#cbd5e1;font-size:19px;font-weight:700;text-anchor:middle;letter-spacing:0}.battery-polarity.positive{fill:#f8fafc}.battery-body{fill:#0b1728!important}.scenario-battery-body{fill:#082334!important;stroke:#38bdf8!important}.scenario-added-component,.scenario-modified-component{cursor:help;filter:drop-shadow(0 0 3px rgba(245,158,11,.62))}.scenario-added-component .symbol path,.scenario-added-component .symbol circle,.scenario-added-component .symbol rect,.scenario-modified-component .symbol path,.scenario-modified-component .symbol circle,.scenario-modified-component .symbol rect{stroke:#f59e0b}.scenario-badge{cursor:help}.scenario-badge circle{fill:#111827;stroke:#f59e0b;stroke-width:2}.scenario-badge text{fill:#fbbf24;font-size:12px;font-weight:700;text-anchor:middle;letter-spacing:0}.battery-glow{fill:#dce51a!important;opacity:.16;stroke:none!important;filter:url(#ledGlow);animation:viewerBatteryPulse 1.5s ease-in-out infinite}.scenario-source-glow{fill:#38bdf8!important;opacity:.15;stroke:none!important;filter:url(#ledGlow);animation:viewerScenarioPulse 1.5s ease-in-out infinite}.led-glow{fill:#ef4444;filter:url(#ledGlow);stroke:none}.led-glow.led-color-red{fill:#ef4444}.led-glow.led-color-yellow{fill:#facc15}.led-glow.led-color-green{fill:#22c55e}.led-glow.led-steady{opacity:.3}.led-color-red .led-rays{stroke:#ff4d5a!important}.led-color-yellow .led-rays{stroke:#fde047!important}.led-color-green .led-rays{stroke:#4ade80!important}.lamp-glow{fill:#ffd84a;opacity:.24;filter:url(#ledGlow);animation:viewerLampPulse 1.4s ease-in-out infinite}.meter-body{fill:#0b1728!important}.meter-glow{fill:#dce51a!important;opacity:.13;stroke:none!important;filter:url(#ledGlow);animation:viewerMeterPulse 1.5s ease-in-out infinite}.meter-scale,.meter-tick{stroke:#94a3b8!important;stroke-width:2!important}.meter-needle{stroke:#dce51a!important;stroke-width:2.5!important}.meter-pivot{fill:#dce51a!important;stroke:none!important}.meter-name{fill:#f4f7fb;font-size:13px;font-weight:700;text-anchor:middle;letter-spacing:0}.meter-reading{fill:#dce51a;font-size:12px;font-weight:700;text-anchor:middle;letter-spacing:0}.source-wave{stroke-width:2.5!important}.legend rect{fill:#06101d;stroke:#314257}.legend text{fill:#d7dfeb;font-size:11px;letter-spacing:0}.legend-title{font-weight:700}.legend .wire{stroke-width:3}.connector rect{fill:#0b1728}.connector circle{fill:#0b1728}@keyframes viewerCurrent{to{stroke-dashoffset:-38}}@keyframes viewerTransient{from{stroke-dashoffset:18;opacity:.68}to{stroke-dashoffset:-18;opacity:1}}@keyframes viewerLampPulse{0%,100%{opacity:.16}50%{opacity:.38}}@keyframes viewerBatteryPulse{0%,100%{opacity:.1}50%{opacity:.24}}@keyframes viewerScenarioPulse{0%,100%{opacity:.08}50%{opacity:.24}}@keyframes viewerMeterPulse{0%,100%{opacity:.08}50%{opacity:.2}}@media (prefers-reduced-motion:reduce){.wire.active,.wire.transient,.component-flow,.transistor-flow,.lamp-glow,.battery-glow,.scenario-source-glow,.meter-glow{animation:none}}</style>
<style>.terminal-port circle{fill:#071525!important}</style>
<style>.meter-needle-group{transform-origin:0px 9px;transform-box:fill-box}.meter-needle-group.meter-active{animation:viewerMeterNeedle .7s cubic-bezier(.22,.85,.32,1) both}.meter-live{fill:#dce51a;stroke:none;filter:url(#ledGlow);animation:viewerMeterLive 1.35s ease-in-out infinite}.meter-reading.meter-active{animation:viewerMeterReading 1.35s ease-in-out infinite}@keyframes viewerMeterNeedle{from{transform:rotate(-150deg)}to{transform:rotate(var(--needle-angle))}}@keyframes viewerMeterLive{0%,100%{opacity:.45}50%{opacity:1}}@keyframes viewerMeterReading{0%,100%{opacity:.78}50%{opacity:1}}@media (prefers-reduced-motion:reduce){.meter-needle-group.meter-active{animation:none;transform:rotate(var(--needle-angle))}.meter-live,.meter-reading.meter-active{animation:none}}</style>
<style>.wire.signal-overlay,.component-flow.signal-overlay,.transistor-flow.signal-overlay{fill:none;stroke:#38bdf8;stroke-width:1.5;stroke-linecap:round;stroke-linejoin:round;stroke-dasharray:3 8;animation:viewerSignalOverlay 1.15s linear infinite}@keyframes viewerSignalOverlay{to{stroke-dashoffset:-22}}@media (prefers-reduced-motion:reduce){.wire.signal-overlay,.component-flow.signal-overlay,.transistor-flow.signal-overlay{animation:none}}</style>
<style>.node-constraint{cursor:help}.constraint-leader{fill:none;stroke:#38bdf8;stroke-width:2;stroke-dasharray:4 6;opacity:.8}.constraint-halo{fill:#38bdf8;stroke:none;opacity:.16;filter:url(#ledGlow);animation:viewerConstraintPulse 1.5s ease-in-out infinite}.constraint-node{fill:#071525;stroke:#38bdf8;stroke-width:3}.constraint-badge{fill:#082334;stroke:#38bdf8;stroke-width:1.5}.constraint-label{fill:#dff6ff;font-size:12px;font-weight:700;text-anchor:middle;letter-spacing:0}@keyframes viewerConstraintPulse{0%,100%{opacity:.1}50%{opacity:.28}}@media (prefers-reduced-motion:reduce){.constraint-halo{animation:none}}</style>
<style>.node-wire{cursor:help}.node-badge{cursor:help}.node-badge rect{fill:#0b1728;fill-opacity:.9;stroke:#52647c;stroke-width:1}.node-badge text{fill:#d7dfeb;font-size:11px;font-weight:700;text-anchor:middle;letter-spacing:0}.node-badge:hover rect{stroke:#38bdf8;fill:#082334}.node-badge:hover text{fill:#dff6ff}</style>
<style>.headset .symbol ellipse{fill:none;stroke:#f4f7fb;stroke-width:3}.headset .audio-wave,.speaker .audio-wave,.antenna .radio-wave{fill:none;stroke:#f4f7fb;stroke-width:2;stroke-linecap:round;opacity:.5}.headset .audio-wave.active,.speaker .audio-wave.active{stroke:#38bdf8;animation:viewerAudioWave 1.25s ease-out infinite}.headset .audio-wave.wave-2.active,.speaker .audio-wave.wave-2.active{animation-delay:.18s}.antenna .radio-wave{animation:viewerRadioWave 1.8s ease-in-out infinite}.antenna .radio-wave.wave-2{animation-delay:.3s}@keyframes viewerAudioWave{0%{opacity:.2}55%{opacity:1}100%{opacity:.2}}@keyframes viewerRadioWave{0%,100%{opacity:.25}50%{opacity:.8}}@media (prefers-reduced-motion:reduce){.headset .audio-wave.active,.speaker .audio-wave.active,.antenna .radio-wave{animation:none}}</style>
<g class="connections"><g class="node-wire"><title>N001 | -25 V | 4 terminali</title><path class="wire active" d="M581.81 476.92 H559.81 V439.91 H521.97 V461.91"/></g><g class="node-wire"><title>N001 | -25 V | 4 terminali</title><path class="wire active" d="M521.97 461.91 V436.59 H438.06 V458.59"/></g><g class="node-wire"><title>N001 | -25 V | 4 terminali</title><path class="wire active" d="M438.06 458.59 V436.59 H394.09 V350.31 H439.43 V328.31"/><path class="wire active signal-overlay" d="M438.06 458.59 V436.59 H394.09 V350.31 H439.43 V328.31"/></g><g class="node-wire"><title>N002 | -25 V | 2 terminali</title><path class="wire active" d="M655.81 476.92 H669.81"/></g><g class="node-wire"><title>N003 | 25 V | 4 terminali</title><path class="wire active" d="M584.46 79.57 H562.46 V60.73 H524.65 V82.73"/></g><g class="node-wire"><title>N003 | 25 V | 4 terminali</title><path class="wire active" d="M524.65 82.73 V60.55 H440.75 V82.55"/></g><g class="node-wire"><title>N003 | 25 V | 4 terminali</title><path class="wire active" d="M440.75 82.55 V60.55 H439.43 V176.34"/><path class="wire active signal-overlay" d="M440.75 82.55 V60.55 H439.43 V176.34"/></g><g class="node-wire"><title>N004 | 25 V | 2 terminali</title><path class="wire active" d="M658.46 79.57 H672.46"/></g><g class="node-wire"><title>N006 | 0 V | 3 terminali</title><path class="wire active" d="M349.02 279.16 H327.02 V363.85"/><path class="wire active signal-overlay" d="M349.02 279.16 H327.02 V363.85"/></g><g class="node-wire"><title>N006 | 0 V | 3 terminali</title><path class="wire active" d="M327.02 363.85 V341.85 H337.32 V386.34 H388.09 Q394.09 380.34 400.09 386.34 H418.09"/><path class="wire active signal-overlay" d="M327.02 363.85 V341.85 H337.32 V386.34 H388.09 Q394.09 380.34 400.09 386.34 H418.09"/></g><g class="node-wire"><title>N005 | 0 V | 3 terminali</title><path class="wire active" d="M349.02 227.48 H327.02 V215.86 H335.32 V212.09 H313.32"/><path class="wire active signal-overlay" d="M349.02 227.48 H327.02 V215.86 H335.32 V212.09 H313.32"/></g><g class="node-wire"><title>N005 | 0 V | 3 terminali</title><path class="wire active" d="M313.32 212.09 H335.32 V244.86 H279.08 V266.86"/><path class="wire active signal-overlay" d="M313.32 212.09 H335.32 V244.86 H279.08 V266.86"/></g><g class="node-wire"><title>N007 | -0.02 V | 4 terminali</title><path class="wire active" d="M488.62 253.07 H510.62 V217.86 H541.42 V239.86"/><path class="wire active signal-overlay" d="M488.62 253.07 H510.62 V217.86 H541.42 V239.86"/></g><g class="node-wire"><title>N007 | -0.02 V | 4 terminali</title><path class="wire active" d="M541.42 239.86 V217.86 H572.34 V272.15 H594.34"/><path class="wire active signal-overlay" d="M541.42 239.86 V217.86 H572.34 V272.15 H594.34"/></g><g class="node-wire"><title>N007 | -0.02 V | 4 terminali</title><path class="wire active" d="M488.62 253.07 H510.62 V344.04 H532.09 V386.34 H510.09"/><path class="wire active signal-overlay" d="M488.62 253.07 H510.62 V344.04 H532.09 V386.34 H510.09"/></g><g class="node-wire"><title>N008 | 0 V | 3 terminali</title><path class="wire active" d="M255.32 212.09 H217.97"/><path class="wire active signal-overlay" d="M255.32 212.09 H217.97"/></g><g class="node-wire"><title>N008 | 0 V | 3 terminali</title><path class="wire active" d="M255.32 212.09 H233.32 V243.09 H239.97 V265.09"/><path class="wire active signal-overlay" d="M255.32 212.09 H233.32 V243.09 H239.97 V265.09"/></g><g class="node-wire"><title>N009 | 0 V | 2 terminali</title><path class="wire active" d="M338.47 491.64 V469.64 H337.32 V477.85 H327.02 V455.85"/><path class="wire active signal-overlay" d="M338.47 491.64 V469.64 H337.32 V477.85 H327.02 V455.85"/></g><g class="node-wire"><title>Massa</title><path class="wire guide" d="M101.2 338.44 V230.25"/></g><g class="node-wire"><title>Massa</title><path class="wire active" d="M279.08 362.86 V358.86"/><path class="wire active signal-overlay" d="M279.08 362.86 V358.86"/></g><g class="node-wire"><title>Massa</title><path class="wire active" d="M279.08 358.86 V380.86 H239.97 V357.09"/><path class="wire active signal-overlay" d="M279.08 358.86 V380.86 H239.97 V357.09"/></g><g class="node-wire"><title>Massa</title><path class="wire active" d="M338.47 553.64 V549.64"/><path class="wire active signal-overlay" d="M338.47 553.64 V549.64"/></g><g class="node-wire"><title>Massa</title><path class="wire active" d="M438.06 519.72 V516.59"/></g><g class="node-wire"><title>Massa</title><path class="wire active" d="M440.75 143.15 V140.55"/></g><g class="node-wire"><title>Massa</title><path class="wire active" d="M524.65 144.21 V140.73"/></g><g class="node-wire"><title>Massa</title><path class="wire active" d="M570.08 430.04 V426.04"/><path class="wire active signal-overlay" d="M570.08 430.04 V426.04"/></g><g class="node-wire"><title>Massa</title><path class="wire active" d="M628.08 402.31 V352.31 H572.34 V316.15 H594.34"/><path class="wire active signal-overlay" d="M628.08 402.31 V352.31 H572.34 V316.15 H594.34"/></g><g class="node-wire"><title>N010 | -0.02 V | 2 terminali</title><path class="wire active" d="M570.08 368.04 V346.04 H557.81 V353.86 H541.42 V331.86"/><path class="wire active signal-overlay" d="M570.08 368.04 V346.04 H557.81 V353.86 H541.42 V331.86"/></g><g class="node-wire"><title>N011 | 0 V | 2 terminali</title><path class="wire active" d="M125.97 212.09 H111.97"/><path class="wire active signal-overlay" d="M125.97 212.09 H111.97"/></g></g>
<g class="components"><g class="component" transform="translate(618.81 476.92) rotate(0)"><g class="symbol"><path d="M-37.0 0 H-24 M24 0 H37.0"/><rect x="-24" y="-10" width="48" height="20" rx="3"/></g></g><text class="component-label" style="text-anchor:middle" x="694.81" y="439.92"><tspan x="694.81" y="432.92">F2</tspan><tspan x="694.81" y="446.92">2 A</tspan></text><g class="component" transform="translate(621.46 79.57) rotate(0)"><g class="symbol"><path d="M-37.0 0 H-24 M24 0 H37.0"/><rect x="-24" y="-10" width="48" height="20" rx="3"/></g></g><text class="component-label" style="text-anchor:middle" x="621.46" y="42.57"><tspan x="621.46" y="35.57">F1</tspan><tspan x="621.46" y="49.57">2 A</tspan></text><g class="component-with-tooltip"><title>IC1 LM1875; modello ufficiale TI PSpice Rev. A SNAM066A</title><g class="symbol integrated-circuit"><rect x="349.02" y="176.34" width="139.6" height="151.97"/><text class="component-label" style="text-anchor:middle" x="418.82" y="252.33"><tspan x="418.82" y="245.33">IC1</tspan><tspan x="418.82" y="259.33">LM1875</tspan></text></g></g><g class="component" transform="translate(284.32 212.09) rotate(0)"><g class="symbol"><path d="M-29.000000000000014 0 H-8 M-8 -20 Q4 0 -8 20 M8 -20 V20 M8 0 H29.000000000000014"/><text class="battery-polarity positive" x="16" y="5" transform="rotate(-0 16 0)">+</text><text class="battery-polarity" x="-16" y="5" transform="rotate(-0 -16 0)">-</text></g><path class="component-flow" d="M-29.000000000000014 0 H-8 M8 0 H29.000000000000014"/><path class="component-flow signal-overlay" d="M-29.000000000000014 0 H-8 M8 0 H29.000000000000014"/></g><text class="component-label" style="text-anchor:middle" x="284.32" y="166.09"><tspan x="284.32" y="159.09">C4</tspan><tspan x="284.32" y="173.09">1 uF</tspan></text><g class="component" transform="translate(338.47 520.64) rotate(90)"><g class="symbol"><path d="M-29.000000000000114 0 H-8 M8 -20 Q-4 0 8 20 M-8 -20 V20 M8 0 H29.000000000000114"/><text class="battery-polarity positive" x="-16" y="5" transform="rotate(-90 -16 0)">+</text><text class="battery-polarity" x="16" y="5" transform="rotate(-90 16 0)">-</text></g><path class="component-flow" d="M-29.000000000000114 0 H-8 M8 0 H29.000000000000114"/><path class="component-flow signal-overlay" d="M-29.000000000000114 0 H-8 M8 0 H29.000000000000114"/></g><text class="component-label" style="text-anchor:end" x="304.47" y="524.64"><tspan x="304.47" y="517.64">C1</tspan><tspan x="304.47" y="531.64">22 uF</tspan></text><g class="component" transform="translate(438.06 487.59) rotate(90)"><g class="symbol"><path d="M-28.99999999999997 0 H-8 M8 -20 Q-4 0 8 20 M-8 -20 V20 M8 0 H28.99999999999997"/><text class="battery-polarity positive" x="-16" y="5" transform="rotate(-90 -16 0)">+</text><text class="battery-polarity" x="16" y="5" transform="rotate(-90 16 0)">-</text></g><path class="component-flow" d="M-28.99999999999997 0 H-8 M8 0 H28.99999999999997"/></g><text class="component-label" style="text-anchor:end" x="404.06" y="453.59"><tspan x="404.06" y="446.59">C2</tspan><tspan x="404.06" y="460.59">100 nF</tspan></text><g class="component" transform="translate(440.75 111.55) rotate(90)"><g class="symbol"><path d="M-28.999999999999986 0 H-8 M8 -20 Q-4 0 8 20 M-8 -20 V20 M8 0 H28.999999999999986"/><text class="battery-polarity positive" x="-16" y="5" transform="rotate(-90 -16 0)">+</text><text class="battery-polarity" x="16" y="5" transform="rotate(-90 16 0)">-</text></g><path class="component-flow" d="M-28.999999999999986 0 H-8 M8 0 H28.999999999999986"/></g><text class="component-label" style="text-anchor:end" x="406.75" y="115.55"><tspan x="406.75" y="108.55">C6</tspan><tspan x="406.75" y="122.55">100 nF</tspan></text><g class="component" transform="translate(521.97 490.91) rotate(90)"><g class="symbol"><path d="M-29.00000000000003 0 H-8 M8 -20 Q-4 0 8 20 M-8 -20 V20 M8 0 H29.00000000000003"/><text class="battery-polarity positive" x="-16" y="5" transform="rotate(-90 -16 0)">+</text><text class="battery-polarity" x="16" y="5" transform="rotate(-90 16 0)">-</text></g><path class="component-flow" d="M-29.00000000000003 0 H-8 M8 0 H29.00000000000003"/></g><text class="component-label" style="text-anchor:start" x="555.97" y="514.91"><tspan x="555.97" y="507.91">C3</tspan><tspan x="555.97" y="521.91">220 uF</tspan></text><g class="component" transform="translate(524.65 111.73) rotate(90)"><g class="symbol"><path d="M-28.999999999999993 0 H-8 M8 -20 Q-4 0 8 20 M-8 -20 V20 M8 0 H28.999999999999993"/><text class="battery-polarity positive" x="-16" y="5" transform="rotate(-90 -16 0)">+</text><text class="battery-polarity" x="16" y="5" transform="rotate(-90 16 0)">-</text></g><path class="component-flow" d="M-28.999999999999993 0 H-8 M8 0 H28.999999999999993"/></g><text class="component-label" style="text-anchor:start" x="558.65" y="135.73"><tspan x="558.65" y="128.73">C5</tspan><tspan x="558.65" y="142.73">220 uF</tspan></text><g class="component" transform="translate(570.08 397.04) rotate(90)"><g class="symbol"><path d="M-29.0 0 H-8 M8 -20 Q-4 0 8 20 M-8 -20 V20 M8 0 H29.0"/><text class="battery-polarity positive" x="-16" y="5" transform="rotate(-90 -16 0)">+</text><text class="battery-polarity" x="16" y="5" transform="rotate(-90 16 0)">-</text></g><path class="component-flow" d="M-29.0 0 H-8 M8 0 H29.0"/><path class="component-flow signal-overlay" d="M-29.0 0 H-8 M8 0 H29.0"/></g><text class="component-label" style="text-anchor:end" x="536.08" y="439.04"><tspan x="536.08" y="432.04">C7</tspan><tspan x="536.08" y="446.04">0.22 uF</tspan></text><g class="component" transform="translate(171.97 212.09) rotate(0)"><g class="symbol"><path d="M-46.0 0 H-36 L-30 -14 L-18 14 L-6 -14 L6 14 L18 -14 L30 14 L36 0 H46.0"/></g><path class="component-flow" d="M-46.0 0 H-36 L-30 -14 L-18 14 L-6 -14 L6 14 L18 -14 L30 14 L36 0 H46.0"/><path class="component-flow signal-overlay" d="M-46.0 0 H-36 L-30 -14 L-18 14 L-6 -14 L6 14 L18 -14 L30 14 L36 0 H46.0"/></g><text class="component-label" style="text-anchor:middle" x="171.97" y="173.09"><tspan x="171.97" y="166.09">R5</tspan><tspan x="171.97" y="180.09">1 kohm</tspan></text><g class="component" transform="translate(239.97 311.09) rotate(90)"><g class="symbol"><path d="M-46.0 0 H-36 L-30 -14 L-18 14 L-6 -14 L6 14 L18 -14 L30 14 L36 0 H46.0"/></g><path class="component-flow transient" d="M-46.0 0 H-36 L-30 -14 L-18 14 L-6 -14 L6 14 L18 -14 L30 14 L36 0 H46.0"/></g><text class="component-label" style="text-anchor:end" x="205.97" y="315.09"><tspan x="205.97" y="308.09">R4</tspan><tspan x="205.97" y="322.09">1 Mohm</tspan></text><g class="component" transform="translate(279.08 312.86) rotate(90)"><g class="symbol"><path d="M-46.0 0 H-36 L-30 -14 L-18 14 L-6 -14 L6 14 L18 -14 L30 14 L36 0 H46.0"/></g><path class="component-flow" d="M-46.0 0 H-36 L-30 -14 L-18 14 L-6 -14 L6 14 L18 -14 L30 14 L36 0 H46.0"/><path class="component-flow signal-overlay" d="M-46.0 0 H-36 L-30 -14 L-18 14 L-6 -14 L6 14 L18 -14 L30 14 L36 0 H46.0"/></g><text class="component-label" style="text-anchor:start" x="313.08" y="336.86"><tspan x="313.08" y="329.86">R3</tspan><tspan x="313.08" y="343.86">22 kohm</tspan></text><g class="component" transform="translate(327.02 409.85) rotate(90)"><g class="symbol"><path d="M-46.0 0 H-36 L-30 -14 L-18 14 L-6 -14 L6 14 L18 -14 L30 14 L36 0 H46.0"/></g><path class="component-flow" d="M-46.0 0 H-36 L-30 -14 L-18 14 L-6 -14 L6 14 L18 -14 L30 14 L36 0 H46.0"/><path class="component-flow signal-overlay" d="M-46.0 0 H-36 L-30 -14 L-18 14 L-6 -14 L6 14 L18 -14 L30 14 L36 0 H46.0"/></g><text class="component-label" style="text-anchor:end" x="293.02" y="433.85"><tspan x="293.02" y="426.85">R2</tspan><tspan x="293.02" y="440.85">10 kohm</tspan></text><g class="scenario-modified-component"><title>Componente modificato dallo scenario: 180k -&gt; 100k</title><g class="component" transform="translate(464.09 386.34) rotate(0)"><g class="symbol"><path d="M-46.00000000000006 0 H-36 L-30 -14 L-18 14 L-6 -14 L6 14 L18 -14 L30 14 L36 0 H46.00000000000006"/></g><path class="component-flow" d="M-46.00000000000006 0 H-36 L-30 -14 L-18 14 L-6 -14 L6 14 L18 -14 L30 14 L36 0 H46.00000000000006"/><path class="component-flow signal-overlay" d="M-46.00000000000006 0 H-36 L-30 -14 L-18 14 L-6 -14 L6 14 L18 -14 L30 14 L36 0 H46.00000000000006"/></g><text class="component-label" style="text-anchor:middle" x="426.09" y="425.34"><tspan x="426.09" y="418.34">R1</tspan><tspan x="426.09" y="432.34">180 kohm</tspan></text></g><g class="component" transform="translate(541.42 285.86) rotate(90)"><g class="symbol"><path d="M-45.99999999999996 0 H-36 L-30 -14 L-18 14 L-6 -14 L6 14 L18 -14 L30 14 L36 0 H45.99999999999996"/></g><path class="component-flow" d="M-45.99999999999996 0 H-36 L-30 -14 L-18 14 L-6 -14 L6 14 L18 -14 L30 14 L36 0 H45.99999999999996"/><path class="component-flow signal-overlay" d="M-45.99999999999996 0 H-36 L-30 -14 L-18 14 L-6 -14 L6 14 L18 -14 L30 14 L36 0 H45.99999999999996"/></g><text class="component-label" style="text-anchor:middle" x="579.42" y="217.86"><tspan x="579.42" y="210.86">R6</tspan><tspan x="579.42" y="224.86">1 ohm</tspan></text><g class="component speaker"><g class="symbol"><path d="M594.34 272.15 H616.34 M594.34 316.15 H616.34 M616.34 272.15 H627.34 V316.15 H616.34 Z M627.34 272.15 L652.34 259.15 V329.15 L627.34 316.15"/><path class="audio-wave wave-1 active" d="M663.34 283.15 Q673.34 294.15 663.34 305.15"/><path class="audio-wave wave-2 active" d="M672.34 276.15 Q688.34 294.15 672.34 312.15"/></g><path class="component-flow" d="M594.34 272.15 H616.34 M594.34 316.15 H616.34 M616.34 272.15 H627.34 V316.15 H616.34 Z M627.34 272.15 L652.34 259.15 V329.15 L627.34 316.15"/><path class="component-flow signal-overlay" d="M594.34 272.15 H616.34 M594.34 316.15 H616.34 M616.34 272.15 H627.34 V316.15 H616.34 Z M627.34 272.15 L652.34 259.15 V329.15 L627.34 316.15"/></g><text class="component-label" style="text-anchor:start" x="698.34" y="298.15"><tspan x="698.34" y="291.15">K1</tspan><tspan x="698.34" y="305.15">4 ohm</tspan></text><g class="symbol ground" transform="translate(101.2 338.44)"><path d="M0 0 V12 M-22 12 H22 M-14 21 H14 M-6 30 H6"/></g><g class="symbol ground" transform="translate(279.08 362.86)"><path d="M0 0 V12 M-22 12 H22 M-14 21 H14 M-6 30 H6"/></g><g class="symbol ground" transform="translate(338.47 553.64)"><path d="M0 0 V12 M-22 12 H22 M-14 21 H14 M-6 30 H6"/></g><g class="symbol ground" transform="translate(438.06 519.72)"><path d="M0 0 V12 M-22 12 H22 M-14 21 H14 M-6 30 H6"/></g><g class="symbol ground" transform="translate(440.75 143.15)"><path d="M0 0 V12 M-22 12 H22 M-14 21 H14 M-6 30 H6"/></g><g class="symbol ground" transform="translate(524.65 144.21)"><path d="M0 0 V12 M-22 12 H22 M-14 21 H14 M-6 30 H6"/></g><g class="symbol ground" transform="translate(521.97 519.92)"><path d="M0 0 V12 M-22 12 H22 M-14 21 H14 M-6 30 H6"/></g><g class="symbol ground" transform="translate(570.08 430.04)"><path d="M0 0 V12 M-22 12 H22 M-14 21 H14 M-6 30 H6"/></g><g class="symbol ground" transform="translate(628.08 402.31)"><path d="M0 0 V12 M-22 12 H22 M-14 21 H14 M-6 30 H6"/></g><g class="component-with-tooltip"><title>Testbench SPICE: SIN(0 20m 1k)</title><g class="symbol terminal-port"><circle cx="111.97" cy="212.09" r="5"/><text class="terminal-label" text-anchor="end" x="97.97" y="208.09"><tspan x="97.97">AUDIO IN</tspan><tspan x="97.97" dy="15">20 mVpk @ 1 kHz</tspan></text></g></g><g class="symbol terminal-port"><circle cx="672.46" cy="79.57" r="5"/><text class="terminal-label" text-anchor="start" x="686.46" y="75.57"><tspan x="686.46">VCC</tspan><tspan x="686.46" dy="15">+25 V</tspan></text></g><g class="symbol terminal-port"><circle cx="669.81" cy="476.92" r="5"/><text class="terminal-label" text-anchor="start" x="683.81" y="472.92"><tspan x="683.81">VEE</tspan><tspan x="683.81" dy="15">-25 V</tspan></text></g></g>
<g class="node-badges"><g class="node-badge"><title>N001 | -25 V | 4 terminali</title><rect x="353.69" y="383.45" width="44.8" height="20" rx="4"/><text x="376.09" y="397.45">N001</text></g><g class="node-badge"><title>N003 | 25 V | 4 terminali</title><rect x="527.58" y="34.73" width="44.8" height="20" rx="4"/><text x="549.98" y="48.73">N003</text></g><g class="node-badge"><title>N005 | 0 V | 3 terminali</title><rect x="274.68" y="242.12" width="44.8" height="20" rx="4"/><text x="297.08" y="256.12">N005</text></g><g class="node-badge"><title>N006 | 0 V | 3 terminali</title><rect x="355.31" y="360.34" width="44.8" height="20" rx="4"/><text x="377.7" y="374.34">N006</text></g><g class="node-badge"><title>N007 | -0.02 V | 4 terminali</title><rect x="508.86" y="191.86" width="44.8" height="20" rx="4"/><text x="531.26" y="205.86">N007</text></g><g class="node-badge"><title>N008 | 0 V | 3 terminali</title><rect x="199.57" y="240.35" width="44.8" height="20" rx="4"/><text x="221.97" y="254.35">N008</text></g><g class="node-badge"><title>N009 | 0 V | 2 terminali</title><rect x="286.62" y="460.59" width="44.8" height="20" rx="4"/><text x="309.02" y="474.59">N009</text></g><g class="node-badge"><title>N010 | -0.02 V | 2 terminali</title><rect x="501.02" y="336.6" width="44.8" height="20" rx="4"/><text x="523.42" y="350.6">N010</text></g></g>
<g class="node-constraints"></g>
<g class="legend" transform="translate(835 24)"><rect width="180" height="188" rx="6"/><text class="legend-title" x="14" y="22">Stati</text><path class="wire energized" d="M14 42 H54"/><text x="68" y="46">tensione presente</text><path class="wire active" d="M14 68 H54"/><text x="68" y="72">corrente DC</text><path class="wire transient" d="M14 94 H54"/><text x="68" y="98">segnale variabile</text><path class="wire active" d="M14 120 H54"/><path class="wire signal-overlay" d="M14 120 H54"/><text x="68" y="124">DC + segnale</text><path class="wire idle" d="M14 146 H54"/><text x="68" y="150">nessuna corrente</text><circle class="constraint-node" cx="34" cy="170" r="5"/><text x="68" y="174">vincolo scenario</text></g>
</svg>