<svg class="viewer-svg" xmlns="http://www.w3.org/2000/svg" viewBox="0 0 1040 620" role="img" aria-label="Circuito equivalente dalla netlist SPICE">
<defs><filter id="ledGlow" x="-100%" y="-100%" width="300%" height="300%"><feGaussianBlur stdDeviation="8"/></filter></defs>
<style>.viewer-svg{background:transparent;font-family:Arial,sans-serif}.wire,.symbol path,.symbol circle,.symbol rect,.connector rect,.connector circle{fill:none;stroke:#f4f7fb;stroke-width:3;stroke-linecap:round;stroke-linejoin:round}.wire.active,.component-flow{fill:none;stroke:#dce51a;stroke-width:3;stroke-linecap:round;stroke-linejoin:round;stroke-dasharray:9 10;animation:viewerCurrent 1s linear infinite}.wire.idle{stroke:#aeb9c9;stroke-dasharray:10 8;opacity:.9}.wire.guide{stroke:#52647c;stroke-dasharray:3 11;opacity:.8}.component-label{fill:#f4f7fb;font-size:13px;font-weight:700;text-anchor:middle;letter-spacing:0}.pin-label{fill:#f4f7fb;font-size:12px;font-weight:700;text-anchor:end;letter-spacing:0}.battery-polarity{fill:#cbd5e1;font-size:19px;font-weight:700;text-anchor:middle;letter-spacing:0}.battery-polarity.positive{fill:#f8fafc}.battery-glow{fill:#dce51a!important;opacity:.16;stroke:none!important;filter:url(#ledGlow);animation:viewerBatteryPulse 1.5s ease-in-out infinite}.led-glow{fill:#ef4444;opacity:.3;filter:url(#ledGlow);stroke:none;animation:viewerLedPulse 1.25s ease-in-out infinite}.lamp-glow{fill:#ffd84a;opacity:.24;filter:url(#ledGlow);stroke:none;animation:viewerLampPulse 1.4s ease-in-out infinite}.led-rays{stroke:#ff4d5a!important}.legend rect{fill:#06101d;stroke:#314257}.legend text{fill:#d7dfeb;font-size:11px;letter-spacing:0}.legend-title{font-weight:700}.legend .wire{stroke-width:3}.connector rect{fill:#0b1728}.connector circle{fill:#0b1728}@keyframes viewerCurrent{to{stroke-dashoffset:-38}}@keyframes viewerLedPulse{0%,100%{opacity:.2}50%{opacity:.48}}@keyframes viewerLampPulse{0%,100%{opacity:.16}50%{opacity:.38}}@keyframes viewerBatteryPulse{0%,100%{opacity:.1}50%{opacity:.24}}@media (prefers-reduced-motion:reduce){.wire.active,.component-flow,.led-glow,.lamp-glow,.battery-glow{animation:none}}</style>
<g class="connections"><path class="wire idle" d="M199.16 295.59 V238.43 H225.88 V181.27"/><path class="wire idle" d="M199.16 387.59 V449.95 H199.48 V512.31"/><path class="wire guide" d="M454.7 355.27 H365.43 V437.9"/><path class="wire idle" d="M764.23 419.67 V358.47 H712.85 V297.27"/><path class="wire idle" d="M801.2 529.84 V466.3 H827.69 V402.76"/><path class="wire idle" d="M454.7 297.27 H636.85 V297.27"/><path class="wire idle" d="M827.69 320.76 V280.01 H749.55 V239.27"/><path class="wire idle" d="M454.7 239.27 H657.55 V239.27"/><path class="wire guide" d="M454.7 181.27 H309.88 V181.27"/></g>
<g class="components"><g class="component" transform="translate(199.16 341.59) rotate(90)"><g class="symbol"><path d="M-46.0 0 H-32 M32 0 H46.0"/><rect class="battery-body" x="-32" y="-24" width="64" height="48" rx="4"/><text class="battery-polarity" x="-16" y="5" transform="rotate(-90 -16 0)">−</text><text class="battery-polarity positive" x="16" y="5" transform="rotate(-90 16 0)">+</text></g></g><text class="component-label" style="text-anchor:start" x="233.16" y="345.59">5 V</text><g class="component" transform="translate(674.85 297.27) rotate(0)"><g class="symbol"><path d="M-38.0 0 H-24 M24 0 H38.0"/><circle cx="0" cy="0" r="24"/><path d="M-14 -14 L14 14 M14 -14 L-14 14"/></g></g><text class="component-label" style="text-anchor:middle" x="674.85" y="266.27">Lamp</text><g class="component" transform="translate(827.69 361.76) rotate(90)"><g class="symbol"><path d="M-41.0 0 H-18 M-18 -18 L18 0 L-18 18 Z M18 -20 V20 M18 0 H41.0"/><path class="led-rays" d="M5 -20 L17 -34 M20 -16 L32 -30"/></g></g><text class="component-label" style="text-anchor:start" x="861.69" y="365.76">LED_RED</text><g class="component" transform="translate(703.55 239.27) rotate(0)"><g class="symbol"><path d="M-46.0 0 H-36 L-30 -14 L-18 14 L-6 -14 L6 14 L18 -14 L30 14 L36 0 H46.0"/></g></g><text class="component-label" style="text-anchor:middle" x="703.55" y="208.27">330R</text><g class="connector"><rect x="427.7" y="157.27" width="54" height="222" rx="4"/><circle cx="454.7" cy="181.27" r="7"/><text class="pin-label" x="413.7" y="185.27">1</text><title>pin1</title><circle cx="454.7" cy="239.27" r="7"/><text class="pin-label" x="413.7" y="243.27">2</text><title>pin2</title><circle cx="454.7" cy="297.27" r="7"/><text class="pin-label" x="413.7" y="301.27">3</text><title>pin3</title><circle cx="454.7" cy="355.27" r="7"/><text class="pin-label" x="413.7" y="359.27">4</text><title>pin4</title><text class="component-label" x="454.7" y="147.27">J</text></g><g class="symbol ground" transform="translate(199.48 512.31)"><path d="M0 0 V12 M-22 12 H22 M-14 21 H14 M-6 30 H6"/></g><g class="symbol ground" transform="translate(365.43 437.9)"><path d="M0 0 V12 M-22 12 H22 M-14 21 H14 M-6 30 H6"/></g><g class="symbol ground" transform="translate(764.23 419.67)"><path d="M0 0 V12 M-22 12 H22 M-14 21 H14 M-6 30 H6"/></g><g class="symbol ground" transform="translate(801.2 529.84)"><path d="M0 0 V12 M-22 12 H22 M-14 21 H14 M-6 30 H6"/></g><g class="component" transform="translate(267.88 181.27) rotate(0)"><g class="symbol"><circle cx="-42.0" cy="0" r="4"/><circle cx="42.0" cy="0" r="4"/><path d="M-34.0 0 L34.0 -20"/></g></g><text class="component-label" style="text-anchor:middle" x="267.88" y="150.27">SW</text></g>
<g class="legend" transform="translate(835 24)"><rect width="180" height="116" rx="6"/><text class="legend-title" x="14" y="22">Legenda</text><path class="wire active" d="M14 42 H54"/><text x="68" y="46">ramo alimentato</text><path class="wire idle" d="M14 68 H54"/><text x="68" y="72">ramo fermo</text><path class="wire guide" d="M14 94 H54"/><text x="68" y="98">collegamento guida</text></g>
</svg>